<?xml version="1.0" encoding="UTF-8" standalone="no"?>
<!-- Created with Inkscape (http://www.inkscape.org/) -->

<svg
   xmlns:dc="http://purl.org/dc/elements/1.1/"
   xmlns:cc="http://creativecommons.org/ns#"
   xmlns:rdf="http://www.w3.org/1999/02/22-rdf-syntax-ns#"
   xmlns:svg="http://www.w3.org/2000/svg"
   xmlns="http://www.w3.org/2000/svg"
   xmlns:sodipodi="http://sodipodi.sourceforge.net/DTD/sodipodi-0.dtd"
   xmlns:inkscape="http://www.inkscape.org/namespaces/inkscape"
   width="1232.8492"
   height="1229.7488"
   id="svg2"
   version="1.1"
   inkscape:version="0.48.3.1 r9886"
   sodipodi:docname="profile.svg"
   inkscape:export-filename="/home/jdh/proj/resume/card.png"
   inkscape:export-xdpi="90"
   inkscape:export-ydpi="90">
  <defs
     id="defs4">
    <clipPath
       clipPathUnits="userSpaceOnUse"
       id="clipPath4016">
      <rect
         style="fill:none;stroke:#000000;stroke-opacity:1"
         id="rect4018"
         width="427.14285"
         height="698.57141"
         x="278.57144"
         y="-24.780676" />
    </clipPath>
    <clipPath
       clipPathUnits="userSpaceOnUse"
       id="clipPath3851">
      <path
         style="fill:none;stroke:#000000;stroke-width:0.09999999;stroke-miterlimit:4;stroke-opacity:1;stroke-dashoffset:0"
         d="M 871.87975,-156.92733 L 198.96916,-156.92733 L 198.96916,1265.9298 L 871.87975,1265.9298 z"
         id="path3853"
         inkscape:connector-curvature="0" />
    </clipPath>
  </defs>
  <sodipodi:namedview
     id="base"
     pagecolor="#ffffff"
     bordercolor="#666666"
     borderopacity="1.0"
     inkscape:pageopacity="0.0"
     inkscape:pageshadow="2"
     inkscape:zoom="0.175"
     inkscape:cx="339.85035"
     inkscape:cy="326.3392"
     inkscape:document-units="px"
     inkscape:current-layer="g3860"
     showgrid="false"
     fit-margin-top="0"
     fit-margin-left="0"
     fit-margin-right="0"
     fit-margin-bottom="0"
     inkscape:window-width="1106"
     inkscape:window-height="971"
     inkscape:window-x="84"
     inkscape:window-y="37"
     inkscape:window-maximized="0"
     showborder="true"
     inkscape:showpageshadow="true" />
  <metadata
     id="metadata7">
    <rdf:RDF>
      <cc:Work
         rdf:about="">
        <dc:format>image/svg+xml</dc:format>
        <dc:type
           rdf:resource="http://purl.org/dc/dcmitype/StillImage" />
        <dc:title />
      </cc:Work>
    </rdf:RDF>
  </metadata>
  <g
     inkscape:label="Layer 1"
     inkscape:groupmode="layer"
     id="layer1"
     transform="translate(70.437178,193.97163)">
    <g
       id="g3860"
       transform="translate(3.5753924,-5.1256228)">
      <g
         clip-path="url(#clipPath3851)"
         inkscape:export-ydpi="90"
         inkscape:export-xdpi="90"
         transform="matrix(1.0611447,0,0,1.0611447,-285.14764,-198.77025)"
         id="g4146">
        <path
           sodipodi:nodetypes="ssssssssssssssssssssssssssssssssssssssssssssssssssssssssssssssssssssssssscsssssssssssssssssssssssssssssssssssssssssssssssssssssssssssssssssssssssssssssssssssccscss"
           inkscape:connector-curvature="0"
           id="path4152"
           d="M 452.28751,1015.6813 C 439.24314,1002.5903 434.33449,996.22798 432.49296,990.0247 C 429.45025,979.77523 423.70626,966.21778 419.93319,960.38011 C 417.81523,957.10321 415.41575,953.13305 414.60102,951.55753 C 410.16632,942.98177 395.01107,929.92088 388.11042,928.72779 C 386.67469,928.47955 384.94129,927.50824 384.25843,926.56932 C 381.91332,923.34485 371.49394,912.08465 365,905.75677 C 348.31834,889.5017 344.05631,885.22673 338,878.67477 C 332.22716,872.42948 330.88471,871.50047 326,870.37035 C 309.63261,866.58363 299.16658,853.14479 288.32264,821.99096 C 281.2386,801.63902 280.7597,801.44304 262.68896,811.50053 C 258.46117,813.85356 249.48901,815.34302 250.11837,813.58737 C 252.82912,806.0255 272.59781,788.43818 286.31268,781.38693 C 302.43572,773.09756 317.07305,771.64653 307.97829,779.23916 C 302.96862,783.42142 303.32797,786.96458 310.38964,803.01501 C 322.80173,831.22633 340.97046,850.32355 358.34357,853.41953 C 381.55284,857.55555 382.60966,857.89293 386.82156,862.51078 C 388.8447,864.72891 392.525,868.71222 395,871.36257 C 401.17462,877.97467 404.95791,882.75979 408.5306,888.47613 C 410.19743,891.14307 413.04311,894.41843 414.85433,895.75471 C 416.66555,897.09098 420.46155,901.48682 423.28989,905.52324 C 426.11823,909.55966 429.01005,913.45682 429.71616,914.18361 C 430.42227,914.91039 431,916.07815 431,916.77862 C 431,917.47909 431.9,918.86669 433,919.86218 C 440.58112,926.723 421.95238,891.85652 412.42992,881.36218 C 411.18225,879.98718 406.98543,874.13718 403.10365,868.36218 C 399.22186,862.58718 393.67304,854.66192 390.77293,850.75048 C 387.87282,846.83905 381.03689,837.38905 375.58198,829.75048 C 370.12707,822.11192 362.47707,811.53776 358.58198,806.25237 C 354.68689,800.96697 348.27778,792.19197 344.33952,786.75237 C 340.40125,781.31276 333.95699,773.03718 330.01895,768.36218 C 322.53533,759.47811 319.42976,753.79645 315.33173,741.49183 C 306.0703,713.68371 296.95686,698.99449 274,674.87253 C 266.33005,666.81331 259.56366,658.38135 253.68343,649.55496 C 237.67914,625.53208 218.54488,624.812 219.57294,648.27128 C 219.9616,657.14009 219.77332,659.30542 218.52328,660.34286 C 216.39637,662.10804 216.61242,664.15003 219.5,669.57433 C 223.32073,676.75155 222.97217,679.76714 218.42054,678.91325 C 215.12164,678.29437 214.85599,678.42281 215.03123,680.55196 C 215.5513,686.8706 213.12039,687.11086 209.36305,681.11218 C 206.0427,675.81116 205.17703,675.22351 201.74917,675.94359 C 199.73496,676.36671 198.82613,676.07266 198.35522,674.84548 C 195.12999,666.44068 183.45555,661.10576 178.17238,665.62244 C 176.43686,667.10617 165.03555,670.79808 159.09531,671.79987 C 151.64637,673.0561 150.77738,670.61333 175.42413,717.70073 C 178.54438,723.66194 182.1548,731.31194 183.44728,734.70073 C 186.27242,742.10803 189.93158,751.06678 194.54126,761.86218 C 198.14663,770.30561 199.65206,775.36218 198.56044,775.36218 C 195.83184,775.36218 183.89644,753.94923 180.05298,742.15848 C 178.15335,736.33092 177.24145,735.00482 173.07559,732.01196 C 167.93154,728.31632 168.09364,728.75259 166.33178,713.86218 C 165.95028,710.63797 164.72083,707.46037 162.87008,704.91518 C 161.29154,702.74433 160,700.32244 160,699.53321 C 160,687.72512 138.35338,674.08028 128,679.36218 C 125.84382,680.46218 123.65039,681.36218 123.12571,681.36218 C 119.94842,681.36218 98.789356,694.83621 95.160747,699.17019 C 92.244627,702.65317 88.194481,705.57854 80.324801,709.88599 C 74.342818,713.16021 66.81571,718.27762 63.5,721.32457 C 58.048398,726.33427 52.561603,620.40058 57.991444,614.97074 C 59.259708,613.70247 59.31912,609.36218 58.068217,609.36218 C 56.948598,609.36218 56.63508,537.38691 57.747639,535.76615 C 58.161438,535.16334 59.762647,534.36095 61.305882,533.98307 C 65.692676,532.90892 64.951359,525.50099 60.25,523.43171 C 54.505697,520.90339 55.310425,510.43664 61.529322,506.79213 C 66.499162,503.87961 66.487934,503.74506 60.818581,498.27503 C 56.202102,493.82086 60.099823,484.37771 67.198315,482.81862 C 75.406857,481.01572 76.336559,470.00737 68.916867,462.46972 C 64.080241,457.5562 63.866276,457.11316 64.504765,453.33398 C 65.089915,449.8705 64.934177,449.36218 63.287898,449.36218 C 57.37526,449.36218 57.588161,443.14879 63.735063,436.31196 C 68.43221,431.0876 68.467574,430.99582 68.151548,424.85058 C 67.796807,417.95252 71.958458,403.55687 76.607258,395.60128 C 78.12543,393.00319 79.3028,389.1132 79.624215,385.63335 C 79.914135,382.49448 80.368339,379.57521 80.633559,379.14608 C 80.898778,378.71694 79.88937,377.31092 78.390429,376.02159 C 75.121465,373.20975 75.679752,370.36218 79.5,370.36218 C 81.061002,370.36218 82.281393,369.67812 82.622062,368.61218 C 82.929673,367.64968 83.562267,365.96218 84.027827,364.86218 C 84.493386,363.76218 85.140491,361.90455 85.465838,360.73411 C 86.268405,357.84687 93.774542,355.63597 96.969379,357.34579 C 99.83441,358.87911 100.77431,357.87526 98.660536,355.53957 C 97.747241,354.53039 96.980012,352.84013 96.955583,351.78344 C 96.931153,350.72675 94.675984,346.71218 91.944095,342.86218 C 79.529977,325.36719 80.525525,317.00191 96,308.78168 C 97.925,307.75909 101.06259,306.00888 102.97241,304.89231 C 104.88224,303.77574 110.95724,301.03238 116.47241,298.79596 C 126.5,294.72974 126.5,294.72974 126.25077,290.79596 C 126.11369,288.63238 125.79342,281.46218 125.53906,274.86218 C 125.2847,268.26218 124.82064,260.61218 124.50781,257.86218 C 124.19498,255.11218 123.51209,249.26218 122.99026,244.86218 C 122.46844,240.46218 121.57044,230.78718 120.9947,223.36218 C 120.41896,215.93718 119.53678,208.51218 119.03429,206.86218 C 112.90372,186.73121 117.693,129.15067 126.6613,115.16417 C 133.30837,104.79773 159.06044,77.362183 162.1437,77.362183 C 162.79739,77.362183 164.04497,76.676837 164.91611,75.839191 C 167.46772,73.385688 173.45516,69.115953 179.43657,65.484435 C 182.49646,63.626673 185,61.720651 185,61.24883 C 185,60.777009 187.73756,58.921996 191.08346,57.126578 C 194.42936,55.331161 198.74649,53.017497 200.67707,51.985102 C 225.2655,38.836251 268.86235,26.836629 312,21.344514 C 316.125,20.819335 322.65,19.915995 326.5,19.337092 C 345.92923,16.415624 368.24548,13.605468 382,12.348301 C 388.875,11.719923 397.33755,10.773449 400.80567,10.245024 C 409.11553,8.9788806 451.55074,9.0841586 465.48463,10.405487 C 480.75788,11.853824 487.04532,15.934667 495.04977,29.594645 C 496.74743,32.491791 499.44119,36.887183 501.03591,39.362183 C 502.63062,41.837183 505.05947,45.954221 506.43335,48.511157 C 507.80722,51.068093 510.30799,55.199997 511.99061,57.693165 C 513.67323,60.186333 516.13972,64.690422 517.47169,67.702251 C 518.80366,70.71408 520.33792,73.452994 520.88114,73.788726 C 521.42437,74.124459 522.55507,76.753332 523.3938,79.630666 C 524.23254,82.508 526.39955,87.356274 528.20939,90.404608 C 530.01922,93.452943 534.34855,101.77794 537.83012,108.9046 C 549.27558,132.33314 557.26196,147.79208 560.25509,152.31181 C 561.87578,154.75911 564.2891,159.22005 565.61804,162.22501 C 566.94697,165.22996 569.97487,170.65263 572.3467,174.27537 C 576.90274,181.23429 583.82814,194.52455 588.54567,205.36218 C 590.10184,208.93718 593.09068,214.35673 595.18753,217.40562 C 597.28439,220.45452 599,223.45202 599,224.06673 C 599,227.09965 602.849,229.28223 634,243.91347 C 657.18553,254.80343 665.47134,257.77145 675.46961,258.76812 C 686.3444,259.85216 698.1585,267.14268 692.23824,269.1161 C 691.55721,269.34311 691,270.13602 691,270.87813 C 691,272.51571 688.8071,273.26006 683.5,273.42388 C 659.42872,274.16694 621.42434,282.92235 601.5,292.31495 C 599.3,293.35206 594.8,294.65319 591.5,295.20635 C 573.2474,298.26594 571.95212,305.97847 585.28693,332.20113 C 589.52912,340.54333 593,347.97525 593,348.71653 C 593,349.4578 594.06852,352.07391 595.37448,354.53009 C 596.68045,356.98627 598.07539,360.09079 598.47436,361.42903 C 600.89013,369.53204 612.34452,392.81832 618.65182,402.44892 C 632.66795,423.85011 625.01736,438.36825 597,443.53643 C 587.04687,445.37242 581.36939,451.60503 583.75467,458.07686 C 589.20872,472.87502 587.0316,482.81246 577.25,487.76727 C 573.3273,489.75429 573.16855,491.27858 576.5758,494.24114 C 582.95216,499.78531 583.41865,509.41561 577.52846,513.90827 C 575.67912,515.31883 573.9882,517.6712 573.66615,519.28142 C 573.3511,520.8567 571.76077,524.24678 570.1321,526.81493 C 566.37046,532.74642 565.72149,537.9204 566.86501,552.86218 C 569.43119,586.39294 562.57488,594.52835 515,614.40314 C 485.13446,626.87971 479.08972,632.2195 460.51646,662.53272 C 453.50797,673.97121 451.84226,678.49571 453.75,680.91218 C 454.1625,681.43468 454.0725,681.52468 453.55,681.11218 C 446.78747,675.77334 425.85559,707.9596 425.34143,724.48756 C 425.20759,728.79012 424.60108,733.23905 423.99364,734.37406 C 422.47727,737.20742 423.60923,740.10875 426.8937,741.80721 C 433.94126,745.45164 432.75257,750.2371 425.31019,748.18216 C 415.69779,745.52805 415.08194,766.68298 424.21328,785.86218 C 434.706,807.9008 437.24421,815.97842 444.95224,851.86218 C 446.60624,859.56218 448.61773,870.81218 449.4222,876.86218 C 450.22668,882.91218 451.77768,893.03718 452.86886,899.36218 C 453.96005,905.68718 455.363,918.06218 455.98654,926.86218 C 456.61008,935.66218 457.81942,945.67934 458.67397,949.12254 C 459.94628,954.24899 459.99457,955.6638 458.94054,956.93382 C 457.8642,958.23073 458.20619,959.56257 461.02854,965.0653 C 463.78612,970.44177 464.44921,972.94647 464.65243,978.75401 C 465.07752,990.90161 466.77581,1003.8899 468.46895,1007.9421 C 469.90676,1011.3833 469.92028,1011.9473 468.58827,1012.9213 C 467.26251,1013.8907 467.28237,1014.216 468.75734,1015.691 C 469.68202,1016.6156 469.92337,1017.3622 469.29762,1017.3622 C 468.6756,1017.3622 467.98968,1016.8312 467.77336,1016.1823 C 466.70961,1012.991 463.83501,1016.4481 464.16416,1020.5228 C 464.69134,1027.049 462.87814,1026.3099 452.28751,1015.6813 z"
           style="fill:#e29c56" />
        <path
           inkscape:connector-curvature="0"
           id="path4150"
           d="M 419.20895,712.07805 C 418.60809,710.85932 417.83634,708.43077 417.49396,706.68128 C 416.81395,703.20658 414.89785,701.08603 412.82419,701.51323 C 411.04534,701.8797 403.32575,696.95851 399,692.7004 C 397.075,690.80551 393.31886,687.23729 390.65301,684.77103 C 386.05744,680.51951 385.88327,680.17216 387.29519,678.07455 C 388.67861,676.01926 388.55367,675.57818 385.5354,671.86218 C 383.74848,669.66218 381.98836,666.91797 381.62401,665.76394 C 381.25966,664.6099 379.84521,663.15705 378.48078,662.53538 C 375.60298,661.22416 375.27223,658.40254 377.58293,654.87596 C 378.50171,653.47373 378.89569,651.60889 378.52194,650.43132 C 378.16779,649.31549 378.32736,647.60596 378.87653,646.63236 C 379.66603,645.23269 379.31934,644.41653 377.22015,642.733 C 375.31868,641.20804 374.55602,639.65349 374.53264,637.25499 C 374.50431,634.34867 374.14518,633.87879 371.81479,633.69906 C 370.33792,633.58516 367.52542,633.04904 365.56479,632.50768 C 361.67349,631.43324 361.5021,631.56334 363.03518,634.42792 C 363.90102,636.04576 363.73743,636.36218 362.03518,636.36218 C 360.91583,636.36218 360,635.71782 360,634.93027 C 360,632.01697 354.49537,629.39449 347.63419,629.03905 C 341.94397,628.74426 340.77396,628.34454 338.99993,626.08923 C 337.87128,624.65437 336.11315,623.21548 335.093,622.8917 C 334.03071,622.55454 332.9711,620.96768 332.61314,619.1779 C 331.65716,614.39798 330.37994,613.33377 327.00939,614.50875 C 325.12619,615.16524 323.51179,615.17126 322.30666,614.5263 C 319.7939,613.18151 317,615.35033 317,618.6457 C 317,620.05536 315.83537,622.59281 314.41194,624.28447 C 312.20851,626.90309 311.92433,627.95483 312.49983,631.36119 C 313.09943,634.91015 312.95199,635.36218 311.19489,635.36218 C 308.78578,635.36218 308,637.1888 308,642.78898 C 308,645.78221 307.40421,647.59139 306,648.86218 C 304.9,649.85767 304,651.46313 304,652.42988 C 304,653.39663 302.425,656.57913 300.5,659.50209 C 298.575,662.42506 297,665.42462 297,666.1678 C 297,666.91097 295.18555,669.31542 292.9679,671.51102 C 289.36398,675.0791 289.00412,675.86723 289.57919,678.9326 C 290.38191,683.21147 288.21609,683.5972 284.18623,679.8931 C 282.7088,678.5351 278.01104,674.45279 273.74676,670.8213 C 269.48248,667.18981 265.47413,663.2384 264.83931,662.04038 C 264.2045,660.84237 259.50289,653.96336 254.39129,646.75369 C 244.36883,632.61748 243.50373,631.94884 233.84313,630.87206 C 230.73184,630.52527 226.4742,629.36868 224.38168,628.30186 C 219.5353,625.83103 219.14119,625.86063 218.03173,628.77872 C 216.89949,631.75675 205.82787,641.11629 202.4279,641.96963 C 200.54863,642.4413 200.08576,643.05704 200.5384,644.48318 C 201.38371,647.14651 198.8175,647.83628 195.13954,645.93434 C 189.14932,642.83668 172.40861,643.07434 168.65324,646.31036 C 165.21963,649.26913 155.22552,654.63642 150.60215,656.00462 C 144.43186,657.8306 143.38732,661.25183 146.95748,667.94217 C 151.905,677.21361 150.74374,680.49862 145.12986,673.11218 C 139.88103,666.20607 138.70179,666.03797 129.3107,670.8573 C 121.78343,674.72015 120.85018,674.91008 118.03513,673.15205 C 113.71135,670.4518 97.056587,676.10821 71.75,688.87174 C 57,696.31099 57,696.31099 57,656.55909 C 57,621.1986 57.182706,616.54634 58.653892,614.44593 C 60.094102,612.38974 60.126402,611.8119 58.903892,609.97342 C 57.061206,607.2023 56.192604,536.36218 58.001313,536.36218 C 58.61551,536.36218 58.796948,535.84265 58.404508,535.20767 C 57.982389,534.52467 58.128216,534.32339 58.761575,534.71483 C 59.350401,535.07874 60.99493,534.93441 62.416084,534.39408 C 66.935062,532.67597 65.09855,523.56186 59.992003,522.36403 C 54.507623,521.07758 55.894296,510.23279 61.918284,507.29912 C 68.038436,504.31862 68.03093,504.41974 62.523706,499.14256 C 56.896716,493.75061 59.155962,485.47436 66.818051,483.41117 C 76.879524,480.7019 76.436045,459.36218 66.318269,459.36218 C 65.021525,459.36218 64.836194,458.57393 65.313751,455.08977 C 65.977696,450.24576 65.367416,448.7557 62.5,448.21967 C 58.455473,447.46361 59.321006,441.99804 64.309719,436.79186 C 68.742037,432.16633 68.742037,432.16633 69.283989,422.51426 C 69.849464,412.44325 71.424527,407.10471 77.06147,396.15314 C 78.677661,393.01317 80,389.1852 80,387.64654 C 80,386.10788 80.42554,383.3652 80.945645,381.5517 C 81.773255,378.666 81.586025,377.98901 79.445645,376.12797 C 75.511708,372.70746 76.942492,369.74986 81.903548,371.04721 C 83.548116,371.47727 84,371.13581 84,369.46306 C 84,360.24845 91.405231,354.47575 97.96809,358.57433 C 100.94436,360.43304 101.61107,358.67997 99.178966,355.39037 C 97.980534,353.76941 97,351.76398 97,350.93385 C 97,350.10373 94.8625,346.22206 92.25,342.30792 C 81.874036,326.76226 81.818914,326.59762 84.941086,320.47766 C 88.549587,313.40441 100.45049,305.64392 118.86749,298.3545 C 127.23499,295.04265 127.23499,295.04265 126.47159,284.95242 C 126.05172,279.40279 125.83592,273.96218 125.99204,272.86218 C 126.45021,269.63392 126.17351,264.43178 125.06124,255.36218 C 123.72076,244.43176 123.15315,239.13714 122.0059,226.86218 C 121.49185,221.36218 120.84741,215.51218 120.57381,213.86218 C 117.79529,197.10593 116.3951,165.92121 117.87982,153.86218 C 121.63844,123.33429 123.25554,118.78371 135.47018,104.36218 C 142.546,96.007943 160.21274,78.362183 161.50109,78.362183 C 162.12737,78.362183 164.16737,76.998354 166.03442,75.331452 C 167.90147,73.664549 172.89158,70.270786 177.12354,67.789756 C 181.35551,65.308725 185.04638,62.683708 185.32548,61.956384 C 187.19899,57.07409 225.00699,41.271529 252,34.088521 C 281.36509,26.274288 285.04376,25.563282 318,21.332169 C 322.675,20.731966 328.75,19.836068 331.5,19.341285 C 340.10912,17.792322 364.99997,14.534919 377,13.386814 C 383.325,12.781669 393,11.741067 398.5,11.074366 C 411.38327,9.5126776 460.82048,9.8152316 470.74501,11.516503 C 479.54933,13.025747 485.68993,17.207873 491.12751,25.398242 C 498.70714,36.815066 504.0687,45.436825 506.16178,49.574373 C 507.35478,51.932668 508.88733,54.537183 509.56744,55.362183 C 511.85106,58.132291 521.67019,76.820209 522.96581,80.862183 C 523.67101,83.062183 525.7184,87.337183 527.51558,90.362183 C 529.31275,93.387183 534.25629,103.06218 538.50122,111.86218 C 550.44795,136.62851 555.99543,147.41608 559.61867,152.92697 C 561.45014,155.71261 563.92155,160.19127 565.11071,162.87955 C 566.29986,165.56782 569.31008,170.93867 571.80009,174.81475 C 574.2901,178.69084 580.08911,189.60251 584.68679,199.06291 C 589.28447,208.52332 594.13159,217.55355 595.45817,219.1301 C 596.78475,220.70664 598.17226,223.20034 598.54153,224.67164 C 599.26081,227.53745 607.42715,233.16469 614.63987,235.76463 C 616.76294,236.52993 624.575,240.06656 632,243.62382 C 658.76135,256.44497 665.10143,258.77949 675.84313,259.76753 C 697.58687,261.76756 698.32498,271.83987 676.84696,273.4659 C 662.42972,274.55739 659.21103,275.06417 640.5,279.18873 C 626.04616,282.37486 617.91898,284.88065 605,290.13414 C 600.875,291.81157 595.7,293.46476 593.5,293.80789 C 577.36664,296.3242 572.44816,303.47302 577.63835,316.86218 C 580.70133,324.76376 580.71281,327.05925 577.67943,325.07171 C 569.48856,319.70484 553.93081,327.25879 552.20467,337.44079 C 551.5436,341.34028 551.11972,341.90083 548.6137,342.18959 C 546.82521,342.39567 545.58597,343.22945 545.26951,344.43959 C 544.99138,345.50316 543.89969,346.36218 542.82619,346.36218 C 538.07248,346.36218 531.8223,348.69937 531.03445,350.77158 C 529.48388,354.84987 523,356.61446 523,352.95815 C 523,349.73083 519.24376,347.97244 516.37082,349.85487 C 513.33925,351.84123 509.14948,351.67713 490.75747,348.8517 C 478.88201,347.02736 478.66188,347.06561 462.26987,353.80191 C 457.07772,355.93562 454.4478,356.36218 446.48469,356.36218 C 434.72762,356.36218 433.42751,357.09505 428.1467,366.69929 C 422.95125,376.14829 416.33296,384.36218 413.91493,384.36218 C 411.72771,384.36218 411.58105,385.13007 413.03694,388.95934 C 413.8157,391.00764 413.71697,392.4555 412.64042,394.77444 C 410.03781,400.38055 409.5809,406.2416 411.57474,408.44476 C 413.27552,410.32411 413.25946,410.51997 411.17319,413.3418 C 409.81219,415.18265 409,417.7455 409,420.19924 C 409,422.51825 408.36738,424.64232 407.44993,425.40374 C 406.59739,426.11128 405.9722,427.62888 406.06062,428.77618 C 406.36263,432.69494 405.99866,433.36218 403.55902,433.36218 C 402.21648,433.36218 400.87073,433.76233 400.56847,434.2514 C 399.26095,436.36701 394.94352,436.38029 392.09928,434.27746 C 386.55071,430.17522 378.81761,433.12206 380.88206,438.55198 C 381.62564,440.50774 381.41168,441.80046 379.94533,444.21168 C 377.82036,447.70592 378.25781,453.36218 380.65302,453.36218 C 382.56476,453.36218 381.8692,459.97228 379.78306,461.6297 C 377.45516,463.4792 377.10749,467.71467 378.80089,473.59484 C 379.6352,476.49187 380.35881,480.43718 380.40891,482.36218 C 380.46999,484.70922 381.24119,486.46257 382.75,487.68476 C 383.9875,488.68718 385,490.37468 385,491.43476 C 385,492.49484 385.6199,493.36218 386.37756,493.36218 C 388.58752,493.36218 390.36116,496.00961 388.60315,496.68423 C 384.94823,498.08675 390.79225,506.88212 394.72347,505.89545 C 396.39736,505.47533 397,505.75717 397,506.96015 C 397,507.85999 398.81735,510.3599 401.03855,512.5155 C 403.25976,514.67111 405.47325,517.47674 405.95744,518.75023 C 406.46222,520.07792 408.79203,521.98428 411.41888,523.21905 C 413.9385,524.4034 416,525.75824 416,526.2298 C 416,526.70135 417.4035,528.83655 419.1189,530.97468 C 420.83429,533.1128 422.67831,536.09968 423.21672,537.61218 C 423.75513,539.12468 424.60163,540.36218 425.09783,540.36218 C 425.59402,540.36218 426,541.08899 426,541.97731 C 426,542.86563 427.48529,545.00313 429.30064,546.72731 C 431.11599,548.45149 433.37636,551.09968 434.32369,552.61218 C 435.27102,554.12468 436.51104,555.36218 437.0793,555.36218 C 437.64756,555.36218 440.39827,557.61218 443.19199,560.36218 C 445.98571,563.11218 448.73042,565.36218 449.29135,565.36218 C 449.85228,565.36218 451.78617,566.48718 453.58889,567.86218 C 455.39161,569.23718 457.79431,570.36218 458.92824,570.36218 C 460.06217,570.36218 463.66929,572.52124 466.94407,575.16009 C 470.94779,578.38632 474.63466,580.39272 478.19911,581.28509 C 481.1146,582.01499 484.26718,583.28228 485.20484,584.1013 C 486.15878,584.93453 489.40907,585.7293 492.5843,585.90575 C 495.70534,586.07919 498.74066,586.70284 499.32946,587.29164 C 499.91826,587.88044 501.40844,588.36218 502.64098,588.36218 C 503.87352,588.36218 505.16008,588.81218 505.5,589.36218 C 505.83992,589.91218 507.41492,590.36218 509,590.36218 C 510.58508,590.36218 512.15591,590.80542 512.49072,591.34717 C 514.07744,593.91453 528.63176,591.84376 532.5,588.50027 C 533.6,587.54949 536.3,586.17413 538.5,585.4439 C 540.7,584.71368 543.175,583.55595 544,582.87117 C 544.825,582.1864 548.14242,581.36858 551.37205,581.05381 C 562.15501,580.00285 565.88267,571.57889 563.84847,552.85896 C 562.49577,540.41065 561.81072,538.56447 558.28537,537.86683 C 540.252,534.29816 538.25959,532.77242 543.5,526.54455 C 547.19649,522.15153 545.96457,519.98203 536.99058,515.08096 C 531.07259,511.84889 540.62295,510.67219 558.2193,512.46535 C 576.06479,514.2839 584.53147,507.26872 575.90113,497.81483 C 573.83179,495.54802 537.59271,495.02923 531.95081,497.18565 C 523.81007,500.29715 507.72745,499.38553 507.20598,495.78302 C 506.71119,492.36482 510.24507,490.26922 518.17128,489.28057 C 522.20207,488.7778 530.9,486.83168 537.5,484.95585 C 561.35572,478.17566 565.12008,477.5996 572.56257,479.59016 C 576.76028,480.71288 577.49012,480.6246 581.07692,478.5603 C 589.22111,473.8731 584.21924,482.45991 575.75,487.70514 C 572.5211,489.70488 572.1904,492.68171 574.98008,494.63567 C 580.87875,498.76727 581.6932,510.3816 576.28396,513.22948 C 575.02254,513.8936 573.63189,516.00427 573.0557,518.12919 C 572.49897,520.18233 570.94807,523.46786 569.60924,525.43035 C 565.55174,531.37796 564.89371,535.97232 565.20788,556.16051 C 565.71137,588.51499 561.40381,593.64333 518.44158,611.83789 C 488.71666,624.42642 484.31271,627.3178 473.83084,641.1267 C 466.02805,651.40616 452.71553,672.31275 451.55342,676.11218 C 451.17066,677.3636 450.0617,678.36218 449.05473,678.36218 C 446.0069,678.36218 432.00204,695.69783 424.65859,708.5605 C 421.3321,714.38714 420.5851,714.8693 419.20895,712.07805 z M 578.8027,463.1745 C 575.64499,461.529 575.01074,460.61663 574.45684,456.9229 C 573.50872,450.6004 569.32272,446.36218 564.02624,446.36218 C 561.77866,446.36218 557.26685,445.23718 554,443.86218 C 550.73315,442.48718 546.67625,441.36218 544.98468,441.36218 C 535.13025,441.36218 530.68575,425.93189 536.51894,411.97109 C 540.48539,402.47803 551.03592,404.3049 553.56782,414.92317 C 555.15741,421.58961 563.28677,423.42817 569.51421,418.52966 C 576.17175,413.29284 597.28576,418.77852 603.73836,427.42151 C 608.31745,433.55503 611.03806,434.43727 616.3688,431.51734 C 621.76564,428.5612 622.36141,429.82352 617.50031,433.91485 C 613.02997,437.6773 609.17946,439.3072 597.5,442.38086 C 584.85886,445.7076 580.21832,450.54612 582.80587,457.70187 C 584.14864,461.41524 584.3854,465.42924 583.25,465.23168 C 582.8375,465.1599 580.83621,464.23417 578.8027,463.1745 z"
           style="fill:#a66333" />
        <path
           inkscape:connector-curvature="0"
           id="path4148"
           d="M 57,654.98415 C 57,616.78884 57.010265,616.59931 59.156176,615.17448 C 61.288697,613.75854 61.230413,607.48371 59.096988,608.80224 C 57.498733,609.79001 56.974945,599.61403 57.029247,568.63086 C 57.089584,534.20378 56.360335,537.54824 64.375613,534.9391 C 69.026659,533.42508 65.030197,521.36218 59.877555,521.36218 C 54.02715,521.36218 55.65554,510.16889 61.75,508.4913 C 64.3625,507.77217 67.0625,507.01305 67.75,506.80437 C 70.016942,506.11627 69.060499,504.05829 64.5,499.81136 C 58.272714,494.01224 59.800601,486.20311 67.555101,484.19654 C 77.505105,481.62187 78.457746,464.07547 68.89181,459.57612 C 65.591239,458.02369 64.790645,456.62188 65.958419,454.43987 C 67.782671,451.03123 66.49836,447.36218 63.480948,447.36218 C 61.425016,447.36218 61,446.87811 61,444.53649 C 61,441.78679 64.486947,437.36218 66.653936,437.36218 C 68.664293,437.36218 70,432.14646 70,424.29635 C 70,415.41324 72.700162,406.09898 77.995242,396.71662 C 79.68527,393.72205 81,389.91972 81,388.02655 C 81,386.17529 81.520552,383.16737 82.156781,381.34228 C 83.236107,378.24613 83.120305,377.86984 80.427315,375.72252 C 75.288801,371.62522 78.694396,370.89562 86.480075,374.42582 C 103.73724,382.25059 115.29333,375.40312 98.861437,367.08934 C 92.213787,363.72594 90.781307,363.69483 88.402724,366.86218 C 87.370142,368.23718 86.18211,369.36218 85.762651,369.36218 C 84.636092,369.36218 84.83548,365.58189 86,364.86218 C 86.55,364.52226 87,363.37674 87,362.31658 C 87,359.23553 93.586254,356.86106 96.61955,358.84856 C 101.3022,361.91674 104.66378,359.7621 101.10477,355.9737 C 99.947146,354.74147 99,352.57988 99,351.17017 C 99,349.76047 98.27934,348.00897 97.398533,347.27797 C 95.851086,345.9937 90.881269,338.93845 86.26645,331.47463 C 79.921974,321.21334 88.796494,312.09881 116.5,300.42344 C 128.96619,295.16969 130.01391,287.86454 124.6122,243.86218 C 124.40965,242.21218 123.94126,236.13718 123.57134,230.36218 C 123.20142,224.58718 122.46779,218.28718 121.94106,216.36218 C 119.02513,205.70554 117.21111,168.77644 118.87096,153.86218 C 122.21616,123.80462 123.62273,119.9548 137.13903,103.86218 C 144.42147,95.191653 160.25795,79.362183 161.64988,79.362183 C 162.12282,79.362183 165.69886,76.999683 169.59664,74.112183 C 173.49441,71.224683 178.66722,67.619661 181.09175,66.101022 C 183.51629,64.582384 186.94607,62.332384 188.71349,61.101022 C 199.98475,53.248348 222.2434,43.567079 241,38.359322 C 247.325,36.60319 254.75,34.524736 257.5,33.740536 C 269.77236,30.240907 293.25467,25.642833 305.5,24.341653 C 314.45443,23.390161 328.60195,21.415918 341,19.387733 C 361.19431,16.084166 391.66024,13.404979 387.25,15.320487 C 386.0125,15.857973 385,16.57299 385,16.909414 C 385,17.627663 390.7458,16.469316 392.96718,15.303241 C 400.70582,11.240964 437.92472,9.8126986 440.88179,13.464531 C 443.06756,16.163838 442.7783,17.362183 439.94098,17.362183 C 438.87344,17.362183 438,17.860965 438,18.470588 C 438,19.254708 441.73025,19.406263 450.75,18.988605 C 466.14944,18.275535 468.27337,17.798859 467.46066,15.238218 C 466.65402,12.696744 468.26518,12.878563 471.67327,15.713615 C 475.57435,18.958754 478.45407,20.362183 481.21175,20.362183 C 483.67991,20.362183 488,22.882757 488,24.322813 C 488,24.788785 485.6375,24.234938 482.75,23.09204 C 476.55837,20.641338 452.16773,19.974055 448.5,22.155023 C 446.81277,23.15831 447.43832,23.326819 452.5,23.232536 C 455.8,23.171068 460.68287,23.457991 463.35083,23.870144 C 470.00093,24.897466 467.37898,26.327257 458.80902,26.34687 C 455.12898,26.355292 451.83992,26.812183 451.5,27.362183 C 450.73671,28.597218 451.58221,28.688269 461.13112,28.39935 C 467.96398,28.19261 474.26286,30.153628 467.80902,30.478366 C 466.53906,30.542266 463.25,30.697178 460.5,30.822614 C 457.75,30.948049 454.48097,31.378165 453.23548,31.778427 C 449.16992,33.084976 452.08497,34.537336 458.36175,34.332476 C 472.6298,33.866797 476.37514,34.700147 464.88851,35.7847 C 450.83002,37.112085 448.09595,38.972297 460,39.110754 C 465.775,39.177924 475.675,39.509931 482,39.848547 C 493.5,40.464214 493.5,40.464214 491.19181,38.455785 C 488.88362,36.447357 488.88362,36.447357 492.50978,36.77274 C 496.55948,37.136128 497.67832,37.942191 498.16643,40.848061 C 498.34989,41.940294 499.68362,43.84746 501.13027,45.086208 C 502.57692,46.324955 503.99673,48.241669 504.28541,49.345572 C 504.86411,51.558553 504.37813,51.5317 494.77788,48.820241 C 483.97106,45.768001 455.1808,47.191345 463.5,50.366569 C 466.77415,51.616228 464.96525,54.362183 460.86789,54.362183 C 459.90547,54.362183 458.90966,54.699683 458.65498,55.112183 C 458.40031,55.524683 463.88625,55.920974 470.84597,55.992831 C 477.80569,56.064687 488.33614,56.890141 494.24697,57.827174 C 507.4707,59.923506 509.02211,59.542778 501.32738,56.089588 C 495.50665,53.477402 490.07173,52.796329 472.25,52.44578 C 465.04143,52.303989 467.49159,50.362183 474.87907,50.362183 C 488.5804,50.362183 509,55.081274 509,58.247731 C 509,58.709425 510.35,60.785928 512,62.862183 C 513.65,64.938438 515,67.387889 515,68.305408 C 515,69.222927 516.13928,71.517825 517.53172,73.405182 C 518.92417,75.292539 520.66785,78.867465 521.40657,81.349462 C 522.14528,83.831458 524.0751,88.112183 525.69505,90.862183 C 534.55889,105.90931 537.46657,113.02505 533.81653,110.73727 C 533.09244,110.28343 531.7128,110.0416 530.75067,110.19988 C 529.46794,110.41091 529.06785,109.89494 529.25067,108.26541 C 529.94022,102.11949 499.83915,98.309483 479.0758,101.91457 C 466.44211,104.10814 467.81568,104.47837 487.80841,104.26836 C 497.84014,104.16299 506.33714,104.36599 506.69063,104.71947 C 508.08295,106.1118 505.74565,106.64249 499.27105,106.4041 C 490.58449,106.08427 491.98512,105.97077 481,107.88475 C 475.775,108.79512 469.025,109.92419 466,110.39378 C 458.81856,111.5086 455.91286,112.41217 456.49262,113.35024 C 456.75119,113.76862 459.10863,113.69408 461.73138,113.1846 C 503.7173,105.02864 536.15061,109.82901 542.97764,125.20964 C 544.84586,129.41854 547.19015,133.93537 548.1872,135.24704 C 549.18424,136.55871 550,138.02612 550,138.50794 C 550,138.98976 550.95769,141.42138 552.12821,143.91154 C 553.29872,146.4017 553.95587,148.73964 553.58854,149.10697 C 553.22121,149.4743 552.66104,148.78199 552.34371,147.56851 C 552.02637,146.35503 551.42171,145.36218 551,145.36218 C 550.57829,145.36218 549.99791,144.46218 549.71025,143.36218 C 549.42259,142.26218 548.47011,141.36218 547.59362,141.36218 C 546.71713,141.36218 546,140.97367 546,140.49882 C 546,140.02398 543.28683,139.05969 539.97073,138.35597 C 536.65463,137.65224 533.65966,136.62051 533.31524,136.06323 C 532.91477,135.41525 533.81258,135.2747 535.80574,135.67333 C 537.51993,136.01617 539.17961,135.88057 539.49392,135.37201 C 540.48084,133.77515 534.75689,131.58604 525.96675,130.19859 C 517.94938,128.93311 517.75713,128.8458 522.34454,128.55353 C 526.67548,128.2776 537.62577,130.1563 542.62573,132.03311 C 544.2798,132.65398 544.33875,132.53841 543.12756,131.04941 C 542.37271,130.12143 541.20496,129.36218 540.53254,129.36218 C 539.86013,129.36218 538.52381,128.49348 537.56294,127.43173 C 535.87953,125.57158 535.9012,125.52226 538.15795,126.07738 C 541.01866,126.78107 537.70702,123.92712 532.75,121.41684 C 529.75125,119.89825 529.12267,118.36218 531.5,118.36218 C 533.98469,118.36218 533.18904,116.38529 530.25,115.2564 C 518.2289,110.6391 498.00726,110.82888 470.5,115.81715 C 468.85,116.11637 464.68192,116.86342 461.23759,117.47725 C 454.0875,118.75153 451.53392,120.71775 458.17641,119.83433 C 463.36453,119.14434 472.98842,117.70423 478.5,116.79313 C 485.17349,115.68997 500.99602,115.35315 510,116.12259 C 518.5,116.84896 518.5,116.84896 505,117.50102 C 497.575,117.85965 488.8,118.65426 485.5,119.26681 C 482.2,119.87936 477.5875,120.65994 475.25,121.00141 C 472.9125,121.34289 471,122.07001 471,122.61723 C 471,123.21904 472.2842,123.33101 474.25,122.9006 C 479.43719,121.76487 511.01067,121.27394 516.5,122.24366 C 520.9386,123.02777 520.26492,123.14558 510.5,123.29298 C 490.87248,123.58924 456.06877,129.43254 459.88472,131.79094 C 460.51258,132.17897 463.39704,131.80726 466.29463,130.96491 C 476.98937,127.85586 513.09779,125.7769 511.5,128.36218 C 511.16008,128.91218 508.73476,129.36218 506.1104,129.36218 C 503.48604,129.36218 496.42509,130.25535 490.41942,131.34699 C 484.41374,132.43864 478.06406,133.33864 476.30902,133.34699 C 474.55398,133.35535 472.85196,133.7927 472.52676,134.31889 C 471.93183,135.28151 473.96382,135.17192 490.75819,133.33563 C 506.04496,131.66419 506.71953,134.39222 491.5,136.33558 C 481.86219,137.56622 469.81048,140.69333 472.87842,141.16741 C 474.18655,141.36955 477.16075,141.05553 479.48775,140.46958 C 485.37193,138.98793 510.85555,138.03532 514.5,139.16078 C 518.12274,140.27953 516.48229,140.56303 496,142.35795 C 479.78517,143.77889 464,147.28122 464,149.45793 C 464,149.99468 469.1519,149.81315 478.5,148.94701 C 480.15,148.79414 482.85,148.11495 484.5,147.43771 C 487.92107,146.03355 489.88073,146.83684 491.67654,150.37947 C 493.23359,153.4511 495.99095,154.99485 497.00105,153.36048 C 497.56354,152.45035 498.34149,152.70367 499.96269,154.32487 C 502.02844,156.39062 502.05578,156.60091 500.41465,157.80093 C 498.93195,158.88511 500.07123,159.18801 507.94978,159.80434 C 513.72021,160.25575 517.60449,160.15769 518.21704,159.54514 C 518.83792,158.92426 520.36701,158.89479 522.35118,159.46544 C 524.08303,159.96353 528.35568,160.45079 531.84596,160.54825 C 537.27244,160.69977 538.41202,161.06136 539.71097,163.04381 C 541.44268,165.68674 543,166.07423 543,163.86218 C 543,161.91185 546.90187,161.9087 550.63569,163.85602 C 552.21106,164.67763 554.18737,165.35263 555.02749,165.35602 C 555.86762,165.35941 557.52558,166.04201 558.71185,166.8729 C 560.33314,168.0085 561.05155,168.08779 561.60504,167.19222 C 562.03946,166.48931 561.45134,165.40984 560.17069,164.55952 C 557.66507,162.89585 557.34537,160.82736 559.46797,160.01284 C 561.04831,159.40641 561.23454,159.62466 564.70345,166.14879 C 567.54455,171.49217 567.56929,172.32381 564.86612,171.61692 C 561.94107,170.852 562.85479,173.45903 566.07897,175.07743 C 567.41054,175.74582 568.7384,177.29163 569.02977,178.51256 C 569.32115,179.73349 570.82661,181.43663 572.37526,182.29731 C 575.14503,183.83664 583.41304,198.48743 587.64902,209.36218 C 588.6131,211.83718 591.11146,215.76463 593.20094,218.08984 C 598.54935,224.04164 598.53103,227.72239 593.16681,224.94844 C 588.84143,222.7117 576.38431,220.21711 565.5,219.40806 C 560,218.99923 553.92797,218.14666 552.0066,217.51345 C 546.2077,215.60238 544.62086,216.5534 545.9391,221.14982 C 546.92586,224.59045 545.56188,226.70787 544.50461,223.3767 C 543.81426,221.20159 542.49201,220.75708 541.49773,222.36585 C 541.15657,222.91787 539.78001,223.09409 538.43871,222.75744 C 536.32062,222.22583 536,222.48829 536,224.75377 C 536,227.64844 534.48061,228.1062 532.07874,225.93517 C 531.16601,225.11016 527.13035,224.21789 522.5124,223.82008 C 518.11922,223.44164 513.47743,222.7338 512.1973,222.24709 C 509.12019,221.07718 509.25,221.00605 509.25,223.86218 C 509.25,225.31673 509.825,226.36218 510.625,226.36218 C 511.38125,226.36218 512,227.05691 512,227.90602 C 512,228.75513 511.4375,229.33682 510.75,229.19866 C 510.0625,229.0605 508.26051,229.27485 506.74558,229.67498 C 504.90435,230.1613 503.21897,229.89653 501.66198,228.87635 C 499.81897,227.66877 498.68885,227.57469 496.24784,228.42563 C 491.3096,230.14711 486.56101,229.29174 486.18045,226.61218 C 485.8827,224.51569 483,223.28574 483,225.25519 C 483,226.85537 480.12432,227.30148 476.94767,226.19409 C 473.81975,225.10369 469,226.52098 469,228.53116 C 469,229.69221 474.75002,229.57567 475.47669,228.39989 C 476.3046,227.0603 481,229.31665 481,231.05408 C 481,231.80806 480.35341,232.67307 479.56314,232.97632 C 478.77287,233.27958 478.36956,234.16166 478.6669,234.93651 C 479.16392,236.23174 478.60421,236.60658 474.13738,237.96995 C 473.11001,238.28352 473.05111,238.71884 473.89798,239.73926 C 474.74005,240.75388 474.64462,241.81479 473.51677,243.97743 C 471.49796,247.84846 471.60414,248.70781 474.25,249.91165 C 475.4875,250.4747 476.3875,251.48141 476.25,252.14878 C 476.1125,252.81615 475.8875,253.92468 475.75,254.61218 C 475.37867,256.46883 480.28419,256.6881 484.33425,254.99588 C 487.67378,253.60054 492.47463,253.7852 491.55474,255.27362 C 490.4614,257.04266 493.16121,258.40969 498.9415,259.01385 C 504.13562,259.55675 505.1881,259.42309 504.80853,258.2688 C 504.55413,257.49516 502.95643,256.72403 501.2581,256.55517 C 498.13438,256.2446 496.19744,253.76474 497.81509,252.14709 C 498.88476,251.07742 503.63052,252.9775 506.74457,255.72224 C 508.54521,257.30933 511.01747,257.82016 519.24457,258.30507 C 524.88506,258.63752 530.46752,259.45313 531.65004,260.11754 C 533.40921,261.10594 533.90344,261.05619 534.36865,259.84387 C 535.11118,257.90887 540.38941,257.92154 542,259.86218 C 543.39798,261.54665 546,261.88429 546,260.38123 C 546,258.50696 550.93739,258.09114 553.4721,259.75194 C 556.27999,261.59174 559,261.86297 559,260.30316 C 559,259.7207 559.51219,259.56069 560.13819,259.94759 C 560.76419,260.33448 564.92669,260.80074 569.38819,260.98371 C 589.8496,261.82289 594.7917,262.21529 598.89331,263.32636 C 602.34411,264.26113 603.45017,264.25182 604.04897,263.28294 C 604.65337,262.305 605.72523,262.30531 609.2223,263.28443 C 612.32209,264.15232 615.14763,264.24418 618.72779,263.59346 C 622.97789,262.82098 640.98677,263.44767 644.5,264.49031 C 645.05,264.65354 646.4,264.30501 647.5,263.7158 C 649.14507,262.83463 658.46683,262.6805 665,263.42645 C 665.825,263.52065 667.97207,262.99245 669.77127,262.25268 C 672.37916,261.18041 673.44105,261.15653 675.0077,262.13491 C 676.08854,262.80991 678.21647,263.36469 679.73643,263.36776 C 683.95849,263.37628 689.99814,265.31025 690.01531,266.65918 C 690.02473,267.39875 690.40406,267.28433 691,266.36218 C 691.77308,265.16592 691.97248,265.35154 691.98469,267.27885 C 691.99311,268.60801 691.70699,269.40251 691.34888,269.04439 C 690.99076,268.68627 690.14443,269.14999 689.46814,270.07487 C 688.52765,271.36107 686.38818,271.81424 680.36926,272.00217 C 672.07999,272.26097 662.80452,273.5186 652,275.84863 C 648.425,276.6196 642.125,277.9809 638,278.87375 C 627.64149,281.11583 615.51121,284.91072 605.77985,288.95364 C 597.40934,292.43119 591.6805,293.27227 590.40637,291.21069 C 589.89734,290.38706 589.37988,290.48976 588.58895,291.57142 C 587.98078,292.40314 585.14063,294.2707 582.2775,295.72156 C 575.09802,299.35968 572.58668,307.88448 576.02798,316.93577 C 577.29532,320.26914 576.58099,321.17179 574.25613,319.17472 C 573.29026,318.34502 571.74418,317.39906 570.8204,317.07258 C 569.81831,316.71842 568.79774,314.74425 568.29033,312.17848 C 567.2017,306.67364 565.29432,306.31974 560.92852,310.81259 C 559.04284,312.75315 556.7493,314.34568 555.83179,314.35153 C 552.8551,314.37053 551,315.53639 551,317.38813 C 551,318.38471 550.38701,320.47407 549.63779,322.03114 C 548.88857,323.58821 547.20107,327.11218 545.88779,329.86218 C 543.36201,335.15114 536.1599,340.28844 531.20034,340.33882 C 529.93553,340.35167 527.68553,340.9848 526.20034,341.74578 C 521.05254,344.38342 509.88261,344.78549 504.38888,342.53091 C 491.77767,337.35536 466.22295,338.09279 455.52523,343.94096 C 450.79559,346.52653 447.61737,347.43865 440.74469,348.18284 C 431.98937,349.13087 431.98937,349.13087 427.20818,354.1439 C 424.57853,356.90107 420.75376,359.85605 418.70869,360.71054 C 416.5381,361.61747 414.16048,363.67075 412.99655,365.64346 C 411.89993,367.50208 409.86678,369.6307 408.47843,370.37372 C 403.97229,372.78533 406.24254,374.47564 411.75,372.80957 C 413.22802,372.36245 414,372.54861 414,373.35213 C 414,374.78206 400.10178,389.36218 398.73873,389.36218 C 398.23093,389.36218 396.67129,390.26218 395.27287,391.36218 C 393.87445,392.46218 391.31618,393.36218 389.58783,393.36218 C 387.45188,393.36218 385.61892,394.24299 383.86509,396.11218 C 382.44594,397.62468 380.20823,399.58757 378.8924,400.47415 C 377.40739,401.47474 375.99751,403.94005 375.17515,406.97415 C 372.96037,415.14559 372.43975,415.84915 366.11216,419.22172 C 362.75047,421.01348 360,422.80605 360,423.20521 C 360,423.60438 358.65,424.72843 357,425.70311 C 355.35,426.67779 354,428.28147 354,429.26684 C 354,430.38974 352.50704,431.73166 350,432.86218 C 347.8,433.85424 346,435.01726 346,435.44667 C 346,435.87607 345.1,436.51305 344,436.86218 C 342.9,437.21131 342,438.1258 342,438.89438 C 342,439.66297 340.9875,440.82501 339.75,441.4767 C 336.98658,442.93196 336.03524,444.28376 336.01531,446.78344 C 336.00689,447.84013 335.24282,449.54137 334.31739,450.56396 C 333.39195,451.58656 332.51735,454.41662 332.37383,456.85299 C 332.0729,461.96147 330.53966,465.36218 328.5374,465.36218 C 326.21782,465.36218 322.95466,470.33335 323.59625,472.88964 C 323.91185,474.14708 323.64298,476.16076 322.99877,477.36447 C 322.01378,479.20494 322.13748,479.77018 323.7765,480.91819 C 329.20037,484.71721 326.87238,493.19771 319.1252,497.86218 C 316.16628,499.64371 313.51092,502.18219 312.58744,504.11218 C 311.04908,507.32723 311.58362,508.37856 313.68713,506.27505 C 315.55062,504.41156 316.10154,506.93899 314.50085,510.0081 C 311.64639,515.48119 314.11641,523.33901 319.181,524.89697 C 321.77159,525.69388 324.32903,528.1854 324.83089,530.40123 C 325.01288,531.20475 326.70038,533.13244 328.58089,534.68498 C 332.22393,537.69266 333.32075,542.64138 330.57762,543.69402 C 329.72851,544.01985 329.36473,545.0409 329.67501,546.22741 C 330.00393,547.48522 329.42469,548.87435 328.09739,550.01082 C 326.94382,550.99853 326,552.35336 326,553.02155 C 326,554.34011 318.75436,553.68164 318.20205,552.31288 C 318.03818,551.90677 317.037,551.80125 315.9772,552.07839 C 314.79445,552.38769 312.83539,551.56001 310.90443,549.93521 C 309.1742,548.47932 306.15821,546.61947 304.20223,545.80221 C 300.43726,544.22911 300.61869,543.24347 305.08685,540.99636 C 309.56077,538.74636 308.707,537.02907 303.50248,537.80954 C 298.74984,538.52224 298.74984,538.52224 301.04304,535.30173 C 303.18085,532.29945 303.22004,531.99625 301.62139,530.82728 C 300.37888,529.91874 299.97619,528.39253 300.15946,525.2865 C 300.31627,522.62897 299.95396,520.84683 299.2062,520.59758 C 298.54279,520.37644 298,519.33301 298,518.27885 C 298,516.19351 296.36487,515.82505 294,517.37749 C 292.45862,518.38935 292.88358,518.97893 296.5,520.84592 C 297.10106,521.15622 297.00134,521.59489 296.25004,521.9455 C 287.38662,526.0818 279.8206,537.14737 283.90147,540.00572 C 285.05566,540.81415 286,542.16604 286,543.00992 C 286,543.8538 287.4625,546.26128 289.25,548.35987 C 297.46557,558.00524 302.82786,570.91444 298.10591,569.67963 C 295.32968,568.95362 296.26523,571.9942 299.09436,572.89213 C 300.4802,573.33198 300.85072,574.10879 300.44524,575.72435 C 299.32454,580.18957 299.83304,585.0462 302.3195,593.62504 C 309.85675,619.63019 303.87544,640.98513 287.90086,645.1036 C 285.72535,645.66448 284.37768,646.67971 284.1605,647.92129 C 283.23016,653.23988 271.67566,657.90136 269.23723,653.94184 C 268.83175,653.28343 267.0375,652.15406 265.25,651.43214 C 261.37707,649.86795 260.91692,647.36218 264.5026,647.36218 C 266.1436,647.36218 268.22096,646.01649 270.53645,643.45351 C 272.73184,641.02348 275.44441,639.21926 277.70696,638.68418 C 282.78718,637.48274 282.89206,635.70292 277.99803,633.74471 C 275.4823,632.73812 273.49036,631.15192 272.94687,629.72244 C 272.33846,628.1222 271.25492,627.36218 269.58191,627.36218 C 266.67117,627.36218 260.41561,623.88762 259.62716,621.83295 C 258.77445,619.61084 256,621.26886 256,624.00055 C 256,625.33397 255.325,626.68397 254.5,627.00055 C 253.675,627.31714 253,628.20301 253,628.96917 C 253,630.73172 252.25232,630.71531 246.92537,628.83585 C 241.49216,626.9189 239.38301,625.02725 238.66259,621.42513 C 238.35076,619.86598 236.72411,617.0887 235.04781,615.25339 C 231.0042,610.8262 231.1348,609.36218 235.57332,609.36218 C 240.83566,609.36218 239.72821,606.68941 232.75055,602.54961 C 225.79611,598.42359 223.48282,598.78775 224.30893,603.87849 C 224.95023,607.83036 224.02578,608.64208 217.54962,609.81346 C 215.37691,610.20645 213.05069,611.27818 212.38023,612.19508 C 211.70978,613.11199 210.78745,613.88248 210.33061,613.90729 C 209.87378,613.9321 207.79465,614.29334 205.71033,614.71005 C 202.72117,615.30765 200.51998,614.90733 195.28981,612.81494 C 186.67798,609.36966 183.16751,609.47036 175.45738,613.38381 C 170.37107,615.96549 168.40848,616.47379 165.57741,615.94268 C 162.39763,615.34615 161.5859,615.70269 157.45514,619.5103 C 152.993,623.62335 152.74979,624.37454 154.50153,628.63301 C 155.0512,629.96926 153.97468,631.54258 150.11498,635.04395 C 147.30174,637.59601 145,640.23849 145,640.91613 C 145,642.27976 142.80374,643.36218 140.0369,643.36218 C 139.04716,643.36218 137.03607,644.93718 135.5678,646.86218 C 132.92491,650.32719 132.82124,650.36222 125.19911,650.36592 C 116.03204,650.37037 113.7829,651.49379 104.62265,660.6436 C 93.334087,671.91931 62.527973,693.36218 57.617178,693.36218 C 57.27773,693.36218 57,676.09207 57,654.98415 z"
           style="fill:#392716" />
      </g>
      <text
         sodipodi:linespacing="125%"
         id="text2997"
         y="562.77881"
         x="488.71008"
         style="font-size:92px;font-style:normal;font-variant:normal;font-weight:normal;font-stretch:normal;text-align:start;line-height:125%;letter-spacing:0px;word-spacing:0px;writing-mode:lr-tb;text-anchor:start;fill:#392716;fill-opacity:1;stroke:none;font-family:Yanone Kaffeesatz;-inkscape-font-specification:Yanone Kaffeesatz"
         xml:space="preserve"><tspan
           id="tspan3060"
           y="562.77881"
           x="488.71008"
           sodipodi:role="line">Programmer</tspan><tspan
           id="tspan3062"
           y="677.77881"
           x="488.71008"
           sodipodi:role="line">021 172 6710</tspan><tspan
           id="tspan3066"
           y="792.77881"
           x="488.71008"
           sodipodi:role="line">jedahu@gmail.com</tspan><tspan
           id="tspan3074"
           y="907.77881"
           x="488.71008"
           sodipodi:role="line">twitter.com/jedahu</tspan><tspan
           id="tspan3064"
           y="1022.7788"
           x="488.71008"
           sodipodi:role="line">log.jedahu.net/resume/</tspan></text>
      <path
         inkscape:connector-curvature="0"
         style="fill:#000000;stroke:none"
         d="M 456.11501,1026.2352 L 456.11501,956.23524 L 386.11501,956.23524 L 386.11501,1026.2352 L 456.11501,1026.2352 M 366.11501,1026.2352 L 366.11501,1016.2352 L 356.11501,1016.2352 L 356.11501,1026.2352 L 366.11501,1026.2352 M 326.11501,1026.2352 L 326.11501,1016.2352 L 346.11501,1016.2352 L 346.11501,1006.2352 L 366.11501,1006.2352 L 366.11501,986.23522 L 376.11501,986.23522 L 376.11501,976.23524 L 356.11501,976.23524 L 356.11501,996.23522 L 346.11501,996.23522 L 346.11501,976.23524 L 336.11501,976.23524 L 336.11501,946.23524 L 346.11501,946.23524 L 346.11501,936.23524 L 336.11501,936.23524 L 336.11501,946.23524 L 326.11501,946.23524 L 326.11501,976.23524 L 306.11501,976.23524 L 306.11501,966.23524 L 316.11501,966.23524 L 316.11501,946.23524 L 296.11501,946.23524 L 296.11501,956.23524 L 286.11501,956.23524 L 286.11501,986.23522 L 276.11501,986.23522 L 276.11501,976.23524 L 256.11498,976.23524 L 256.11498,986.23522 L 236.11508,986.23522 L 236.11508,976.23524 L 246.11508,976.23524 L 246.11508,966.23524 L 256.11498,966.23524 L 256.11498,956.23524 L 246.11508,956.23524 L 246.11508,946.23524 L 266.11501,946.23524 L 266.11501,966.23524 L 276.11501,966.23524 L 276.11501,946.23524 L 266.11501,946.23524 L 266.11501,936.23524 L 276.11501,936.23524 L 276.11501,906.23524 L 306.11501,906.23524 L 306.11501,916.23524 L 296.11501,916.23524 L 296.11501,936.23524 L 326.11501,936.23524 L 326.11501,926.23524 L 346.11501,926.23524 L 346.11501,916.23524 L 336.11501,916.23524 L 336.11501,906.23524 L 366.11501,906.23524 L 366.11501,916.23524 L 376.11501,916.23524 L 376.11501,936.23524 L 366.11501,936.23524 L 366.11501,926.23524 L 356.11501,926.23524 L 356.11501,946.23524 L 366.11501,946.23524 L 366.11501,966.23524 L 376.11501,966.23524 L 376.11501,946.23524 L 396.11501,946.23524 L 396.11501,936.23524 L 386.11501,936.23524 L 386.11501,926.23524 L 396.11501,926.23524 L 396.11501,916.23524 L 386.11501,916.23524 L 386.11501,906.23524 L 406.11501,906.23524 L 406.11501,916.23524 L 426.11501,916.23524 L 426.11501,906.23524 L 406.11501,906.23524 L 406.11501,886.23524 L 416.11501,886.23524 L 416.11501,876.23524 L 386.11501,876.23524 L 386.11501,866.23524 L 406.11501,866.23524 L 406.11501,846.23524 L 396.11501,846.23524 L 396.11501,836.23524 L 386.11501,836.23524 L 386.11501,846.23524 L 376.11501,846.23524 L 376.11501,816.23524 L 386.11501,816.23524 L 386.11501,826.23524 L 406.11501,826.23524 L 406.11501,816.23524 L 386.11501,816.23524 L 386.11501,806.23524 L 406.11501,806.23524 L 406.11501,796.23524 L 416.11501,796.23524 L 416.11501,806.23524 L 446.11501,806.23524 L 446.11501,816.23524 L 436.11501,816.23524 L 436.11501,826.23524 L 426.11501,826.23524 L 426.11501,816.23524 L 416.11501,816.23524 L 416.11501,846.23524 L 426.11501,846.23524 L 426.11501,856.23524 L 416.11501,856.23524 L 416.11501,866.23524 L 446.11501,866.23524 L 446.11501,836.23524 L 456.11501,836.23524 L 456.11501,806.23524 L 446.11501,806.23524 L 446.11501,796.23524 L 436.11501,796.23524 L 436.11501,776.23524 L 446.11501,776.23524 L 446.11501,766.23524 L 456.11501,766.23524 L 456.11501,746.23524 L 446.11501,746.23524 L 446.11501,736.23524 L 456.11501,736.23524 L 456.11501,696.23524 L 446.11501,696.23524 L 446.11501,686.23524 L 436.11501,686.23524 L 436.11501,666.23524 L 446.11501,666.23524 L 446.11501,676.23524 L 456.11501,676.23524 L 456.11501,666.23524 L 446.11501,666.23524 L 446.11501,656.23524 L 456.11501,656.23524 L 456.11501,626.23523 L 436.11501,626.23523 L 436.11501,646.23523 L 446.11501,646.23523 L 446.11501,656.23524 L 426.11501,656.23524 L 426.11501,646.23523 L 406.11501,646.23523 L 406.11501,636.23523 L 416.11501,636.23523 L 416.11501,626.23523 L 426.11501,626.23523 L 426.11501,616.23523 L 456.11501,616.23523 L 456.11501,596.23523 L 446.11501,596.23523 L 446.11501,586.23523 L 426.11501,586.23523 L 426.11501,576.23523 L 416.11501,576.23523 L 416.11501,586.23523 L 426.11501,586.23523 L 426.11501,596.23523 L 386.11501,596.23523 L 386.11501,586.23523 L 396.11501,586.23523 L 396.11501,576.23523 L 376.11501,576.23523 L 376.11501,556.23523 L 366.11501,556.23523 L 366.11501,536.23523 L 376.11501,536.23523 L 376.11501,516.23518 L 366.11501,516.23518 L 366.11501,526.2352 L 356.11501,526.2352 L 356.11501,516.23518 L 346.11501,516.23518 L 346.11501,496.23518 L 286.11501,496.23518 L 286.11501,506.23518 L 276.11501,506.23518 L 276.11501,496.23518 L 246.11508,496.23518 L 246.11508,506.23518 L 236.11508,506.23518 L 236.11508,496.23518 L 226.11508,496.23518 L 226.11508,536.23523 L 216.11508,536.23523 L 216.11508,496.23518 L 196.11508,496.23518 L 196.11508,516.23518 L 186.11508,516.23518 L 186.11508,506.23518 L 176.11508,506.23518 L 176.11508,496.23518 L 166.11508,496.23518 L 166.11508,506.23518 L 156.11508,506.23518 L 156.11508,496.23518 L 146.11508,496.23518 L 146.11508,506.23518 L 156.11508,506.23518 L 156.11508,526.2352 L 146.11508,526.2352 L 146.11508,536.23523 L 136.11508,536.23523 L 136.11508,526.2352 L 126.11508,526.2352 L 126.11508,536.23523 L 116.11508,536.23523 L 116.11508,526.2352 L 106.11508,526.2352 L 106.11508,516.23518 L 126.11508,516.23518 L 126.11508,506.23518 L 136.11508,506.23518 L 136.11508,496.23518 L 126.11508,496.23518 L 126.11508,506.23518 L 106.11508,506.23518 L 106.11508,496.23518 L 96.115084,496.23518 L 96.115084,506.23518 L 86.115084,506.23518 L 86.115084,516.23518 L 66.115088,516.23518 L 66.115088,526.2352 L 56.115088,526.2352 L 56.115088,536.23523 L 66.115088,536.23523 L 66.115088,546.23523 L 56.115088,546.23523 L 56.115088,556.23523 L 46.115088,556.23523 L 46.115088,566.23523 L 26.115088,566.23523 L 26.115088,546.23523 L 46.115088,546.23523 L 46.115088,536.23523 L 26.115088,536.23523 L 26.115088,546.23523 L 16.115088,546.23523 L 16.115088,536.23523 L -13.884912,536.23523 L -13.884912,526.2352 L -33.884912,526.2352 L -33.884912,536.23523 L -43.884912,536.23523 L -43.884912,526.2352 L -53.884962,526.2352 L -53.884962,546.23523 L -43.884912,546.23523 L -43.884912,566.23523 L -33.884912,566.23523 L -33.884912,576.23523 L -43.884912,576.23523 L -43.884912,586.23523 L -33.884912,586.23523 L -33.884912,596.23523 L -43.884912,596.23523 L -43.884912,626.23523 L -53.884962,626.23523 L -53.884962,606.23523 L -73.884962,606.23523 L -73.884962,616.23523 L -63.884962,616.23523 L -63.884962,636.23523 L -73.884962,636.23523 L -73.884962,646.23523 L -63.884962,646.23523 L -63.884962,636.23523 L -53.884962,636.23523 L -53.884962,656.23524 L -63.884962,656.23524 L -63.884962,676.23524 L -73.884962,676.23524 L -73.884962,696.23524 L -53.884962,696.23524 L -53.884962,686.23524 L -63.884962,686.23524 L -63.884962,676.23524 L -53.884962,676.23524 L -53.884962,666.23524 L -43.884912,666.23524 L -43.884912,716.23524 L -63.884962,716.23524 L -63.884962,706.23524 L -73.884962,706.23524 L -73.884962,746.23524 L -63.884962,746.23524 L -63.884962,736.23524 L -53.884962,736.23524 L -53.884962,756.23524 L -73.884962,756.23524 L -73.884962,776.23524 L -63.884962,776.23524 L -63.884962,796.23524 L -53.884962,796.23524 L -53.884962,766.23524 L -43.884912,766.23524 L -43.884912,746.23524 L -33.884912,746.23524 L -33.884912,776.23524 L -43.884912,776.23524 L -43.884912,786.23524 L -33.884912,786.23524 L -33.884912,796.23524 L -43.884912,796.23524 L -43.884912,806.23524 L -33.884912,806.23524 L -33.884912,796.23524 L -23.884912,796.23524 L -23.884912,786.23524 L -13.884912,786.23524 L -13.884912,806.23524 L -23.884912,806.23524 L -23.884912,826.23524 L -3.8849115,826.23524 L -3.8849115,836.23524 L -13.884912,836.23524 L -13.884912,846.23524 L -43.884912,846.23524 L -43.884912,836.23524 L -33.884912,836.23524 L -33.884912,816.23524 L -53.884962,816.23524 L -53.884962,806.23524 L -73.884962,806.23524 L -73.884962,826.23524 L -63.884962,826.23524 L -63.884962,866.23524 L -73.884962,866.23524 L -73.884962,886.23524 L -63.884962,886.23524 L -63.884962,906.23524 L -53.884962,906.23524 L -53.884962,886.23524 L -33.884912,886.23524 L -33.884912,896.23524 L -43.884912,896.23524 L -43.884912,906.23524 L -3.8849115,906.23524 L -3.8849115,896.23524 L 6.1150885,896.23524 L 6.1150885,916.23524 L 16.115088,916.23524 L 16.115088,906.23524 L 46.115088,906.23524 L 46.115088,876.23524 L 56.115088,876.23524 L 56.115088,866.23524 L 66.115088,866.23524 L 66.115088,846.23524 L 76.115088,846.23524 L 76.115088,866.23524 L 106.11508,866.23524 L 106.11508,856.23524 L 96.115084,856.23524 L 96.115084,846.23524 L 76.115088,846.23524 L 76.115088,836.23524 L 66.115088,836.23524 L 66.115088,816.23524 L 16.115088,816.23524 L 16.115088,806.23524 L 26.115088,806.23524 L 26.115088,786.23524 L 16.115088,786.23524 L 16.115088,746.23524 L 26.115088,746.23524 L 26.115088,736.23524 L 46.115088,736.23524 L 46.115088,716.23524 L 56.115088,716.23524 L 56.115088,736.23524 L 76.115088,736.23524 L 76.115088,746.23524 L 86.115084,746.23524 L 86.115084,736.23524 L 106.11508,736.23524 L 106.11508,746.23524 L 96.115084,746.23524 L 96.115084,756.23524 L 106.11508,756.23524 L 106.11508,746.23524 L 116.11508,746.23524 L 116.11508,736.23524 L 126.11508,736.23524 L 126.11508,726.23524 L 136.11508,726.23524 L 136.11508,706.23524 L 126.11508,706.23524 L 126.11508,696.23524 L 136.11508,696.23524 L 136.11508,686.23524 L 106.11508,686.23524 L 106.11508,676.23524 L 86.115084,676.23524 L 86.115084,666.23524 L 116.11508,666.23524 L 116.11508,656.23524 L 96.115084,656.23524 L 96.115084,636.23523 L 76.115088,636.23523 L 76.115088,626.23523 L 86.115084,626.23523 L 86.115084,616.23523 L 106.11508,616.23523 L 106.11508,596.23523 L 116.11508,596.23523 L 116.11508,586.23523 L 136.11508,586.23523 L 136.11508,596.23523 L 146.11508,596.23523 L 146.11508,586.23523 L 206.11508,586.23523 L 206.11508,596.23523 L 176.11508,596.23523 L 176.11508,606.23523 L 146.11508,606.23523 L 146.11508,616.23523 L 136.11508,616.23523 L 136.11508,606.23523 L 126.11508,606.23523 L 126.11508,626.23523 L 106.11508,626.23523 L 106.11508,636.23523 L 126.11508,636.23523 L 126.11508,666.23524 L 136.11508,666.23524 L 136.11508,676.23524 L 146.11508,676.23524 L 146.11508,686.23524 L 156.11508,686.23524 L 156.11508,706.23524 L 146.11508,706.23524 L 146.11508,716.23524 L 156.11508,716.23524 L 156.11508,706.23524 L 166.11508,706.23524 L 166.11508,726.23524 L 146.11508,726.23524 L 146.11508,736.23524 L 156.11508,736.23524 L 156.11508,746.23524 L 126.11508,746.23524 L 126.11508,756.23524 L 116.11508,756.23524 L 116.11508,766.23524 L 106.11508,766.23524 L 106.11508,776.23524 L 86.115084,776.23524 L 86.115084,766.23524 L 56.115088,766.23524 L 56.115088,756.23524 L 66.115088,756.23524 L 66.115088,746.23524 L 46.115088,746.23524 L 46.115088,766.23524 L 36.115088,766.23524 L 36.115088,756.23524 L 26.115088,756.23524 L 26.115088,776.23524 L 36.115088,776.23524 L 36.115088,786.23524 L 46.115088,786.23524 L 46.115088,796.23524 L 36.115088,796.23524 L 36.115088,806.23524 L 46.115088,806.23524 L 46.115088,796.23524 L 66.115088,796.23524 L 66.115088,806.23524 L 76.115088,806.23524 L 76.115088,826.23524 L 96.115084,826.23524 L 96.115084,836.23524 L 106.11508,836.23524 L 106.11508,846.23524 L 116.11508,846.23524 L 116.11508,856.23524 L 146.11508,856.23524 L 146.11508,866.23524 L 166.11508,866.23524 L 166.11508,856.23524 L 176.11508,856.23524 L 176.11508,866.23524 L 186.11508,866.23524 L 186.11508,856.23524 L 176.11508,856.23524 L 176.11508,846.23524 L 196.11508,846.23524 L 196.11508,836.23524 L 206.11508,836.23524 L 206.11508,856.23524 L 196.11508,856.23524 L 196.11508,866.23524 L 206.11508,866.23524 L 206.11508,856.23524 L 216.11508,856.23524 L 216.11508,876.23524 L 206.11508,876.23524 L 206.11508,896.23524 L 216.11508,896.23524 L 216.11508,876.23524 L 226.11508,876.23524 L 226.11508,906.23524 L 196.11508,906.23524 L 196.11508,916.23524 L 176.11508,916.23524 L 176.11508,906.23524 L 166.11508,906.23524 L 166.11508,896.23524 L 156.11508,896.23524 L 156.11508,886.23524 L 176.11508,886.23524 L 176.11508,896.23524 L 196.11508,896.23524 L 196.11508,876.23524 L 186.11508,876.23524 L 186.11508,886.23524 L 176.11508,886.23524 L 176.11508,876.23524 L 156.11508,876.23524 L 156.11508,886.23524 L 136.11508,886.23524 L 136.11508,866.23524 L 116.11508,866.23524 L 116.11508,886.23524 L 106.11508,886.23524 L 106.11508,896.23524 L 126.11508,896.23524 L 126.11508,906.23524 L 116.11508,906.23524 L 116.11508,916.23524 L 106.11508,916.23524 L 106.11508,906.23524 L 96.115084,906.23524 L 96.115084,876.23524 L 86.115084,876.23524 L 86.115084,886.23524 L 76.115088,886.23524 L 76.115088,876.23524 L 66.115088,876.23524 L 66.115088,896.23524 L 76.115088,896.23524 L 76.115088,906.23524 L 66.115088,906.23524 L 66.115088,916.23524 L 76.115088,916.23524 L 76.115088,936.23524 L 66.115088,936.23524 L 66.115088,926.23524 L 56.115088,926.23524 L 56.115088,956.23524 L 46.115088,956.23524 L 46.115088,946.23524 L 36.115088,946.23524 L 36.115088,936.23524 L 46.115088,936.23524 L 46.115088,926.23524 L 26.115088,926.23524 L 26.115088,946.23524 L 6.1150885,946.23524 L 6.1150885,936.23524 L 16.115088,936.23524 L 16.115088,926.23524 L -3.8849115,926.23524 L -3.8849115,916.23524 L -33.884912,916.23524 L -33.884912,926.23524 L -43.884912,926.23524 L -43.884912,936.23524 L -33.884912,936.23524 L -33.884912,946.23524 L -23.884912,946.23524 L -23.884912,936.23524 L -13.884912,936.23524 L -13.884912,946.23524 L 6.1150885,946.23524 L 6.1150885,966.23524 L 16.115088,966.23524 L 16.115088,956.23524 L 26.115088,956.23524 L 26.115088,996.23522 L 16.115088,996.23522 L 16.115088,986.23522 L 6.1150885,986.23522 L 6.1150885,996.23522 L 16.115088,996.23522 L 16.115088,1016.2352 L 26.115088,1016.2352 L 26.115088,1026.2352 L 46.115088,1026.2352 L 46.115088,1016.2352 L 36.115088,1016.2352 L 36.115088,1006.2352 L 26.115088,1006.2352 L 26.115088,996.23522 L 36.115088,996.23522 L 36.115088,956.23524 L 46.115088,956.23524 L 46.115088,1006.2352 L 66.115088,1006.2352 L 66.115088,1016.2352 L 56.115088,1016.2352 L 56.115088,1026.2352 L 76.115088,1026.2352 L 76.115088,1006.2352 L 86.115084,1006.2352 L 86.115084,1016.2352 L 116.11508,1016.2352 L 116.11508,1006.2352 L 126.11508,1006.2352 L 126.11508,1026.2352 L 136.11508,1026.2352 L 136.11508,1006.2352 L 126.11508,1006.2352 L 126.11508,996.23522 L 116.11508,996.23522 L 116.11508,1006.2352 L 106.11508,1006.2352 L 106.11508,996.23522 L 96.115084,996.23522 L 96.115084,986.23522 L 76.115088,986.23522 L 76.115088,976.23524 L 86.115084,976.23524 L 86.115084,966.23524 L 96.115084,966.23524 L 96.115084,956.23524 L 86.115084,956.23524 L 86.115084,966.23524 L 76.115088,966.23524 L 76.115088,956.23524 L 66.115088,956.23524 L 66.115088,946.23524 L 76.115088,946.23524 L 76.115088,936.23524 L 86.115084,936.23524 L 86.115084,946.23524 L 96.115084,946.23524 L 96.115084,936.23524 L 106.11508,936.23524 L 106.11508,986.23522 L 116.11508,986.23522 L 116.11508,976.23524 L 126.11508,976.23524 L 126.11508,986.23522 L 136.11508,986.23522 L 136.11508,996.23522 L 146.11508,996.23522 L 146.11508,1026.2352 L 156.11508,1026.2352 L 156.11508,996.23522 L 166.11508,996.23522 L 166.11508,1016.2352 L 186.11508,1016.2352 L 186.11508,1006.2352 L 176.11508,1006.2352 L 176.11508,986.23522 L 186.11508,986.23522 L 186.11508,996.23522 L 196.11508,996.23522 L 196.11508,1006.2352 L 226.11508,1006.2352 L 226.11508,1016.2352 L 206.11508,1016.2352 L 206.11508,1026.2352 L 256.11498,1026.2352 L 256.11498,1016.2352 L 266.11501,1016.2352 L 266.11501,1006.2352 L 276.11501,1006.2352 L 276.11501,1016.2352 L 286.11501,1016.2352 L 286.11501,1026.2352 L 326.11501,1026.2352 M -3.8849115,1026.2352 L -3.8849115,956.23524 L -73.884962,956.23524 L -73.884962,1026.2352 L -3.8849115,1026.2352 M 396.11501,1016.2352 L 396.11501,966.23524 L 446.11501,966.23524 L 446.11501,1016.2352 L 396.11501,1016.2352 M 306.11501,1016.2352 L 306.11501,1006.2352 L 286.11501,1006.2352 L 286.11501,996.23522 L 326.11501,996.23522 L 326.11501,976.23524 L 336.11501,976.23524 L 336.11501,996.23522 L 346.11501,996.23522 L 346.11501,1006.2352 L 326.11501,1006.2352 L 326.11501,1016.2352 L 306.11501,1016.2352 M 236.11508,1016.2352 L 236.11508,1006.2352 L 256.11498,1006.2352 L 256.11498,1016.2352 L 236.11508,1016.2352 M -63.884962,1016.2352 L -63.884962,966.23524 L -13.884912,966.23524 L -13.884912,1016.2352 L -63.884962,1016.2352 M 436.11501,1006.2352 L 436.11501,976.23524 L 406.11501,976.23524 L 406.11501,1006.2352 L 436.11501,1006.2352 M 86.115084,1006.2352 L 86.115084,996.23522 L 96.115084,996.23522 L 96.115084,1006.2352 L 86.115084,1006.2352 M -23.884912,1006.2352 L -23.884912,976.23524 L -53.884962,976.23524 L -53.884962,1006.2352 L -23.884912,1006.2352 M 296.11501,986.23522 L 296.11501,976.23524 L 306.11501,976.23524 L 306.11501,986.23522 L 296.11501,986.23522 M 146.11508,986.23522 L 146.11508,966.23524 L 136.11508,966.23524 L 136.11508,956.23524 L 146.11508,956.23524 L 146.11508,946.23524 L 116.11508,946.23524 L 116.11508,936.23524 L 106.11508,936.23524 L 106.11508,926.23524 L 116.11508,926.23524 L 116.11508,916.23524 L 126.11508,916.23524 L 126.11508,906.23524 L 136.11508,906.23524 L 136.11508,896.23524 L 146.11508,896.23524 L 146.11508,916.23524 L 136.11508,916.23524 L 136.11508,936.23524 L 146.11508,936.23524 L 146.11508,926.23524 L 166.11508,926.23524 L 166.11508,936.23524 L 146.11508,936.23524 L 146.11508,946.23524 L 156.11508,946.23524 L 156.11508,956.23524 L 166.11508,956.23524 L 166.11508,966.23524 L 156.11508,966.23524 L 156.11508,976.23524 L 166.11508,976.23524 L 166.11508,986.23522 L 146.11508,986.23522 M 216.11508,976.23524 L 216.11508,926.23524 L 206.11508,926.23524 L 206.11508,916.23524 L 236.11508,916.23524 L 236.11508,926.23524 L 246.11508,926.23524 L 246.11508,946.23524 L 236.11508,946.23524 L 236.11508,936.23524 L 226.11508,936.23524 L 226.11508,966.23524 L 236.11508,966.23524 L 236.11508,956.23524 L 246.11508,956.23524 L 246.11508,966.23524 L 236.11508,966.23524 L 236.11508,976.23524 L 216.11508,976.23524 M 176.11508,976.23524 L 176.11508,946.23524 L 206.11508,946.23524 L 206.11508,976.23524 L 176.11508,976.23524 M 356.11501,966.23524 L 356.11501,956.23524 L 346.11501,956.23524 L 346.11501,966.23524 L 356.11501,966.23524 M 296.11501,966.23524 L 296.11501,956.23524 L 306.11501,956.23524 L 306.11501,966.23524 L 296.11501,966.23524 M 196.11508,966.23524 L 196.11508,956.23524 L 186.11508,956.23524 L 186.11508,966.23524 L 196.11508,966.23524 M 156.11508,966.23524 L 156.11508,956.23524 L 146.11508,956.23524 L 146.11508,966.23524 L 156.11508,966.23524 M 116.11508,966.23524 L 116.11508,956.23524 L 126.11508,956.23524 L 126.11508,966.23524 L 116.11508,966.23524 M 56.115088,966.23524 L 56.115088,956.23524 L 66.115088,956.23524 L 66.115088,966.23524 L 56.115088,966.23524 M 436.11501,946.23524 L 436.11501,936.23524 L 456.11501,936.23524 L 456.11501,926.23524 L 446.11501,926.23524 L 446.11501,916.23524 L 456.11501,916.23524 L 456.11501,906.23524 L 446.11501,906.23524 L 446.11501,886.23524 L 456.11501,886.23524 L 456.11501,876.23524 L 446.11501,876.23524 L 446.11501,886.23524 L 426.11501,886.23524 L 426.11501,896.23524 L 436.11501,896.23524 L 436.11501,926.23524 L 426.11501,926.23524 L 426.11501,936.23524 L 416.11501,936.23524 L 416.11501,946.23524 L 436.11501,946.23524 M 176.11508,936.23524 L 176.11508,926.23524 L 186.11508,926.23524 L 186.11508,936.23524 L 176.11508,936.23524 M 86.115084,936.23524 L 86.115084,926.23524 L 96.115084,926.23524 L 96.115084,936.23524 L 86.115084,936.23524 M -13.884912,936.23524 L -13.884912,926.23524 L -3.8849115,926.23524 L -3.8849115,936.23524 L -13.884912,936.23524 M -33.884912,936.23524 L -33.884912,926.23524 L -23.884912,926.23524 L -23.884912,936.23524 L -33.884912,936.23524 M -63.884962,936.23524 L -63.884962,926.23524 L -53.884962,926.23524 L -53.884962,916.23524 L -63.884962,916.23524 L -63.884962,926.23524 L -73.884962,926.23524 L -73.884962,936.23524 L -63.884962,936.23524 M 306.11501,926.23524 L 306.11501,916.23524 L 316.11501,916.23524 L 316.11501,906.23524 L 306.11501,906.23524 L 306.11501,896.23524 L 296.11501,896.23524 L 296.11501,886.23524 L 286.11501,886.23524 L 286.11501,896.23524 L 276.11501,896.23524 L 276.11501,906.23524 L 266.11501,906.23524 L 266.11501,916.23524 L 256.11498,916.23524 L 256.11498,896.23524 L 246.11508,896.23524 L 246.11508,906.23524 L 236.11508,906.23524 L 236.11508,896.23524 L 246.11508,896.23524 L 246.11508,876.23524 L 256.11498,876.23524 L 256.11498,866.23524 L 236.11508,866.23524 L 236.11508,876.23524 L 226.11508,876.23524 L 226.11508,866.23524 L 236.11508,866.23524 L 236.11508,846.23524 L 226.11508,846.23524 L 226.11508,836.23524 L 216.11508,836.23524 L 216.11508,826.23524 L 226.11508,826.23524 L 226.11508,816.23524 L 206.11508,816.23524 L 206.11508,806.23524 L 186.11508,806.23524 L 186.11508,796.23524 L 156.11508,796.23524 L 156.11508,786.23524 L 146.11508,786.23524 L 146.11508,806.23524 L 156.11508,806.23524 L 156.11508,826.23524 L 136.11508,826.23524 L 136.11508,836.23524 L 146.11508,836.23524 L 146.11508,846.23524 L 126.11508,846.23524 L 126.11508,836.23524 L 116.11508,836.23524 L 116.11508,826.23524 L 106.11508,826.23524 L 106.11508,816.23524 L 86.115084,816.23524 L 86.115084,806.23524 L 96.115084,806.23524 L 96.115084,796.23524 L 116.11508,796.23524 L 116.11508,786.23524 L 106.11508,786.23524 L 106.11508,776.23524 L 126.11508,776.23524 L 126.11508,766.23524 L 146.11508,766.23524 L 146.11508,756.23524 L 156.11508,756.23524 L 156.11508,746.23524 L 166.11508,746.23524 L 166.11508,756.23524 L 156.11508,756.23524 L 156.11508,776.23524 L 166.11508,776.23524 L 166.11508,786.23524 L 186.11508,786.23524 L 186.11508,796.23524 L 196.11508,796.23524 L 196.11508,786.23524 L 206.11508,786.23524 L 206.11508,806.23524 L 226.11508,806.23524 L 226.11508,796.23524 L 216.11508,796.23524 L 216.11508,786.23524 L 226.11508,786.23524 L 226.11508,796.23524 L 236.11508,796.23524 L 236.11508,776.23524 L 246.11508,776.23524 L 246.11508,766.23524 L 226.11508,766.23524 L 226.11508,776.23524 L 216.11508,776.23524 L 216.11508,766.23524 L 226.11508,766.23524 L 226.11508,756.23524 L 216.11508,756.23524 L 216.11508,746.23524 L 236.11508,746.23524 L 236.11508,726.23524 L 226.11508,726.23524 L 226.11508,736.23524 L 216.11508,736.23524 L 216.11508,716.23524 L 196.11508,716.23524 L 196.11508,726.23524 L 206.11508,726.23524 L 206.11508,736.23524 L 186.11508,736.23524 L 186.11508,696.23524 L 196.11508,696.23524 L 196.11508,686.23524 L 156.11508,686.23524 L 156.11508,676.23524 L 146.11508,676.23524 L 146.11508,666.23524 L 166.11508,666.23524 L 166.11508,656.23524 L 156.11508,656.23524 L 156.11508,646.23523 L 136.11508,646.23523 L 136.11508,626.23523 L 146.11508,626.23523 L 146.11508,616.23523 L 156.11508,616.23523 L 156.11508,646.23523 L 166.11508,646.23523 L 166.11508,656.23524 L 176.11508,656.23524 L 176.11508,626.23523 L 196.11508,626.23523 L 196.11508,606.23523 L 216.11508,606.23523 L 216.11508,626.23523 L 206.11508,626.23523 L 206.11508,636.23523 L 216.11508,636.23523 L 216.11508,646.23523 L 236.11508,646.23523 L 236.11508,636.23523 L 246.11508,636.23523 L 246.11508,646.23523 L 256.11498,646.23523 L 256.11498,656.23524 L 266.11501,656.23524 L 266.11501,646.23523 L 276.11501,646.23523 L 276.11501,636.23523 L 266.11501,636.23523 L 266.11501,626.23523 L 286.11501,626.23523 L 286.11501,616.23523 L 256.11498,616.23523 L 256.11498,606.23523 L 226.11508,606.23523 L 226.11508,596.23523 L 216.11508,596.23523 L 216.11508,586.23523 L 226.11508,586.23523 L 226.11508,596.23523 L 236.11508,596.23523 L 236.11508,586.23523 L 246.11508,586.23523 L 246.11508,576.23523 L 236.11508,576.23523 L 236.11508,566.23523 L 216.11508,566.23523 L 216.11508,556.23523 L 236.11508,556.23523 L 236.11508,546.23523 L 226.11508,546.23523 L 226.11508,536.23523 L 236.11508,536.23523 L 236.11508,526.2352 L 256.11498,526.2352 L 256.11498,516.23518 L 246.11508,516.23518 L 246.11508,506.23518 L 256.11498,506.23518 L 256.11498,516.23518 L 266.11501,516.23518 L 266.11501,506.23518 L 276.11501,506.23518 L 276.11501,526.2352 L 296.11501,526.2352 L 296.11501,546.23523 L 286.11501,546.23523 L 286.11501,576.23523 L 276.11501,576.23523 L 276.11501,596.23523 L 266.11501,596.23523 L 266.11501,606.23523 L 286.11501,606.23523 L 286.11501,616.23523 L 296.11501,616.23523 L 296.11501,606.23523 L 306.11501,606.23523 L 306.11501,596.23523 L 286.11501,596.23523 L 286.11501,586.23523 L 296.11501,586.23523 L 296.11501,576.23523 L 306.11501,576.23523 L 306.11501,566.23523 L 296.11501,566.23523 L 296.11501,556.23523 L 316.11501,556.23523 L 316.11501,536.23523 L 306.11501,536.23523 L 306.11501,516.23518 L 286.11501,516.23518 L 286.11501,506.23518 L 326.11501,506.23518 L 326.11501,516.23518 L 336.11501,516.23518 L 336.11501,526.2352 L 326.11501,526.2352 L 326.11501,516.23518 L 316.11501,516.23518 L 316.11501,536.23523 L 326.11501,536.23523 L 326.11501,556.23523 L 316.11501,556.23523 L 316.11501,566.23523 L 326.11501,566.23523 L 326.11501,586.23523 L 336.11501,586.23523 L 336.11501,566.23523 L 346.11501,566.23523 L 346.11501,586.23523 L 356.11501,586.23523 L 356.11501,556.23523 L 366.11501,556.23523 L 366.11501,586.23523 L 376.11501,586.23523 L 376.11501,596.23523 L 386.11501,596.23523 L 386.11501,606.23523 L 406.11501,606.23523 L 406.11501,636.23523 L 386.11501,636.23523 L 386.11501,626.23523 L 376.11501,626.23523 L 376.11501,636.23523 L 366.11501,636.23523 L 366.11501,646.23523 L 356.11501,646.23523 L 356.11501,656.23524 L 376.11501,656.23524 L 376.11501,646.23523 L 396.11501,646.23523 L 396.11501,656.23524 L 386.11501,656.23524 L 386.11501,666.23524 L 396.11501,666.23524 L 396.11501,676.23524 L 406.11501,676.23524 L 406.11501,686.23524 L 416.11501,686.23524 L 416.11501,676.23524 L 426.11501,676.23524 L 426.11501,686.23524 L 436.11501,686.23524 L 436.11501,696.23524 L 426.11501,696.23524 L 426.11501,706.23524 L 446.11501,706.23524 L 446.11501,726.23524 L 436.11501,726.23524 L 436.11501,746.23524 L 446.11501,746.23524 L 446.11501,756.23524 L 426.11501,756.23524 L 426.11501,706.23524 L 416.11501,706.23524 L 416.11501,736.23524 L 406.11501,736.23524 L 406.11501,706.23524 L 416.11501,706.23524 L 416.11501,696.23524 L 376.11501,696.23524 L 376.11501,706.23524 L 366.11501,706.23524 L 366.11501,716.23524 L 376.11501,716.23524 L 376.11501,726.23524 L 396.11501,726.23524 L 396.11501,736.23524 L 376.11501,736.23524 L 376.11501,726.23524 L 366.11501,726.23524 L 366.11501,736.23524 L 356.11501,736.23524 L 356.11501,746.23524 L 366.11501,746.23524 L 366.11501,766.23524 L 356.11501,766.23524 L 356.11501,796.23524 L 376.11501,796.23524 L 376.11501,806.23524 L 366.11501,806.23524 L 366.11501,836.23524 L 336.11501,836.23524 L 336.11501,826.23524 L 356.11501,826.23524 L 356.11501,796.23524 L 336.11501,796.23524 L 336.11501,806.23524 L 346.11501,806.23524 L 346.11501,816.23524 L 306.11501,816.23524 L 306.11501,826.23524 L 286.11501,826.23524 L 286.11501,806.23524 L 296.11501,806.23524 L 296.11501,796.23524 L 306.11501,796.23524 L 306.11501,806.23524 L 316.11501,806.23524 L 316.11501,796.23524 L 326.11501,796.23524 L 326.11501,776.23524 L 316.11501,776.23524 L 316.11501,786.23524 L 306.11501,786.23524 L 306.11501,776.23524 L 296.11501,776.23524 L 296.11501,786.23524 L 266.11501,786.23524 L 266.11501,796.23524 L 256.11498,796.23524 L 256.11498,786.23524 L 246.11508,786.23524 L 246.11508,796.23524 L 236.11508,796.23524 L 236.11508,816.23524 L 246.11508,816.23524 L 246.11508,806.23524 L 276.11501,806.23524 L 276.11501,826.23524 L 266.11501,826.23524 L 266.11501,816.23524 L 246.11508,816.23524 L 246.11508,826.23524 L 256.11498,826.23524 L 256.11498,846.23524 L 246.11508,846.23524 L 246.11508,856.23524 L 266.11501,856.23524 L 266.11501,846.23524 L 276.11501,846.23524 L 276.11501,866.23524 L 286.11501,866.23524 L 286.11501,856.23524 L 306.11501,856.23524 L 306.11501,846.23524 L 316.11501,846.23524 L 316.11501,836.23524 L 326.11501,836.23524 L 326.11501,846.23524 L 346.11501,846.23524 L 346.11501,856.23524 L 366.11501,856.23524 L 366.11501,866.23524 L 376.11501,866.23524 L 376.11501,876.23524 L 386.11501,876.23524 L 386.11501,886.23524 L 396.11501,886.23524 L 396.11501,896.23524 L 386.11501,896.23524 L 386.11501,886.23524 L 366.11501,886.23524 L 366.11501,896.23524 L 356.11501,896.23524 L 356.11501,886.23524 L 346.11501,886.23524 L 346.11501,896.23524 L 336.11501,896.23524 L 336.11501,906.23524 L 326.11501,906.23524 L 326.11501,926.23524 L 306.11501,926.23524 M 156.11508,916.23524 L 156.11508,906.23524 L 166.11508,906.23524 L 166.11508,916.23524 L 156.11508,916.23524 M 326.11501,896.23524 L 326.11501,876.23524 L 296.11501,876.23524 L 296.11501,886.23524 L 316.11501,886.23524 L 316.11501,896.23524 L 326.11501,896.23524 M 276.11501,896.23524 L 276.11501,886.23524 L 266.11501,886.23524 L 266.11501,896.23524 L 276.11501,896.23524 M -23.884912,896.23524 L -23.884912,886.23524 L -33.884912,886.23524 L -33.884912,876.23524 L -53.884962,876.23524 L -53.884962,866.23524 L -43.884912,866.23524 L -43.884912,856.23524 L -53.884962,856.23524 L -53.884962,846.23524 L -43.884912,846.23524 L -43.884912,856.23524 L -3.8849115,856.23524 L -3.8849115,836.23524 L 6.1150885,836.23524 L 6.1150885,826.23524 L -3.8849115,826.23524 L -3.8849115,816.23524 L 6.1150885,816.23524 L 6.1150885,826.23524 L 36.115088,826.23524 L 36.115088,836.23524 L 56.115088,836.23524 L 56.115088,866.23524 L 46.115088,866.23524 L 46.115088,876.23524 L 26.115088,876.23524 L 26.115088,886.23524 L -3.8849115,886.23524 L -3.8849115,896.23524 L -23.884912,896.23524 M 366.11501,886.23524 L 366.11501,876.23524 L 356.11501,876.23524 L 356.11501,866.23524 L 346.11501,866.23524 L 346.11501,856.23524 L 336.11501,856.23524 L 336.11501,876.23524 L 356.11501,876.23524 L 356.11501,886.23524 L 366.11501,886.23524 M 276.11501,876.23524 L 276.11501,866.23524 L 266.11501,866.23524 L 266.11501,876.23524 L 276.11501,876.23524 M 16.115088,876.23524 L 16.115088,856.23524 L -3.8849115,856.23524 L -3.8849115,866.23524 L -13.884912,866.23524 L -13.884912,876.23524 L -3.8849115,876.23524 L -3.8849115,866.23524 L 6.1150885,866.23524 L 6.1150885,876.23524 L 16.115088,876.23524 M 326.11501,866.23524 L 326.11501,856.23524 L 306.11501,856.23524 L 306.11501,866.23524 L 326.11501,866.23524 M 36.115088,866.23524 L 36.115088,856.23524 L 46.115088,856.23524 L 46.115088,846.23524 L 36.115088,846.23524 L 36.115088,856.23524 L 26.115088,856.23524 L 26.115088,866.23524 L 36.115088,866.23524 M 386.11501,856.23524 L 386.11501,846.23524 L 396.11501,846.23524 L 396.11501,856.23524 L 386.11501,856.23524 M 156.11508,856.23524 L 156.11508,846.23524 L 166.11508,846.23524 L 166.11508,836.23524 L 176.11508,836.23524 L 176.11508,846.23524 L 166.11508,846.23524 L 166.11508,856.23524 L 156.11508,856.23524 M 426.11501,846.23524 L 426.11501,836.23524 L 436.11501,836.23524 L 436.11501,826.23524 L 446.11501,826.23524 L 446.11501,836.23524 L 436.11501,836.23524 L 436.11501,846.23524 L 426.11501,846.23524 M 286.11501,846.23524 L 286.11501,836.23524 L 296.11501,836.23524 L 296.11501,846.23524 L 286.11501,846.23524 M 246.11508,846.23524 L 246.11508,826.23524 L 236.11508,826.23524 L 236.11508,846.23524 L 246.11508,846.23524 M 26.115088,846.23524 L 26.115088,836.23524 L 6.1150885,836.23524 L 6.1150885,846.23524 L 26.115088,846.23524 M 186.11508,836.23524 L 186.11508,826.23524 L 176.11508,826.23524 L 176.11508,816.23524 L 166.11508,816.23524 L 166.11508,806.23524 L 176.11508,806.23524 L 176.11508,816.23524 L 196.11508,816.23524 L 196.11508,836.23524 L 186.11508,836.23524 M 136.11508,826.23524 L 136.11508,806.23524 L 126.11508,806.23524 L 126.11508,796.23524 L 116.11508,796.23524 L 116.11508,816.23524 L 126.11508,816.23524 L 126.11508,826.23524 L 136.11508,826.23524 M -3.8849115,806.23524 L -3.8849115,786.23524 L 16.115088,786.23524 L 16.115088,806.23524 L -3.8849115,806.23524 M 416.11501,796.23524 L 416.11501,786.23524 L 426.11501,786.23524 L 426.11501,796.23524 L 416.11501,796.23524 M 386.11501,796.23524 L 386.11501,786.23524 L 396.11501,786.23524 L 396.11501,796.23524 L 386.11501,796.23524 M 66.115088,796.23524 L 66.115088,786.23524 L 86.115084,786.23524 L 86.115084,796.23524 L 66.115088,796.23524 M 46.115088,786.23524 L 46.115088,776.23524 L 56.115088,776.23524 L 56.115088,786.23524 L 46.115088,786.23524 M 416.11501,776.23524 L 416.11501,766.23524 L 436.11501,766.23524 L 436.11501,776.23524 L 416.11501,776.23524 M 376.11501,776.23524 L 376.11501,746.23524 L 406.11501,746.23524 L 406.11501,776.23524 L 376.11501,776.23524 M 316.11501,776.23524 L 316.11501,766.23524 L 326.11501,766.23524 L 326.11501,756.23524 L 336.11501,756.23524 L 336.11501,766.23524 L 356.11501,766.23524 L 356.11501,746.23524 L 326.11501,746.23524 L 326.11501,736.23524 L 346.11501,736.23524 L 346.11501,726.23524 L 366.11501,726.23524 L 366.11501,716.23524 L 346.11501,716.23524 L 346.11501,706.23524 L 356.11501,706.23524 L 356.11501,696.23524 L 346.11501,696.23524 L 346.11501,686.23524 L 336.11501,686.23524 L 336.11501,676.23524 L 326.11501,676.23524 L 326.11501,696.23524 L 336.11501,696.23524 L 336.11501,716.23524 L 346.11501,716.23524 L 346.11501,726.23524 L 326.11501,726.23524 L 326.11501,716.23524 L 316.11501,716.23524 L 316.11501,696.23524 L 306.11501,696.23524 L 306.11501,676.23524 L 316.11501,676.23524 L 316.11501,666.23524 L 336.11501,666.23524 L 336.11501,656.23524 L 326.11501,656.23524 L 326.11501,636.23523 L 336.11501,636.23523 L 336.11501,626.23523 L 326.11501,626.23523 L 326.11501,616.23523 L 346.11501,616.23523 L 346.11501,606.23523 L 356.11501,606.23523 L 356.11501,596.23523 L 366.11501,596.23523 L 366.11501,616.23523 L 356.11501,616.23523 L 356.11501,626.23523 L 366.11501,626.23523 L 366.11501,616.23523 L 386.11501,616.23523 L 386.11501,626.23523 L 396.11501,626.23523 L 396.11501,616.23523 L 386.11501,616.23523 L 386.11501,606.23523 L 376.11501,606.23523 L 376.11501,596.23523 L 366.11501,596.23523 L 366.11501,586.23523 L 356.11501,586.23523 L 356.11501,596.23523 L 346.11501,596.23523 L 346.11501,586.23523 L 336.11501,586.23523 L 336.11501,596.23523 L 346.11501,596.23523 L 346.11501,606.23523 L 316.11501,606.23523 L 316.11501,616.23523 L 306.11501,616.23523 L 306.11501,626.23523 L 286.11501,626.23523 L 286.11501,636.23523 L 306.11501,636.23523 L 306.11501,626.23523 L 316.11501,626.23523 L 316.11501,646.23523 L 306.11501,646.23523 L 306.11501,656.23524 L 296.11501,656.23524 L 296.11501,646.23523 L 286.11501,646.23523 L 286.11501,656.23524 L 266.11501,656.23524 L 266.11501,676.23524 L 256.11498,676.23524 L 256.11498,656.23524 L 246.11508,656.23524 L 246.11508,676.23524 L 256.11498,676.23524 L 256.11498,686.23524 L 246.11508,686.23524 L 246.11508,696.23524 L 236.11508,696.23524 L 236.11508,726.23524 L 246.11508,726.23524 L 246.11508,746.23524 L 256.11498,746.23524 L 256.11498,756.23524 L 266.11501,756.23524 L 266.11501,746.23524 L 286.11501,746.23524 L 286.11501,736.23524 L 296.11501,736.23524 L 296.11501,746.23524 L 306.11501,746.23524 L 306.11501,736.23524 L 296.11501,736.23524 L 296.11501,726.23524 L 306.11501,726.23524 L 306.11501,716.23524 L 316.11501,716.23524 L 316.11501,746.23524 L 326.11501,746.23524 L 326.11501,756.23524 L 316.11501,756.23524 L 316.11501,766.23524 L 306.11501,766.23524 L 306.11501,776.23524 L 316.11501,776.23524 M 286.11501,776.23524 L 286.11501,766.23524 L 296.11501,766.23524 L 296.11501,756.23524 L 286.11501,756.23524 L 286.11501,766.23524 L 256.11498,766.23524 L 256.11498,776.23524 L 286.11501,776.23524 M 176.11508,776.23524 L 176.11508,746.23524 L 206.11508,746.23524 L 206.11508,776.23524 L 176.11508,776.23524 M -23.884912,776.23524 L -23.884912,746.23524 L 6.1150885,746.23524 L 6.1150885,776.23524 L -23.884912,776.23524 M 396.11501,766.23524 L 396.11501,756.23524 L 386.11501,756.23524 L 386.11501,766.23524 L 396.11501,766.23524 M 196.11508,766.23524 L 196.11508,756.23524 L 186.11508,756.23524 L 186.11508,766.23524 L 196.11508,766.23524 M -3.8849115,766.23524 L -3.8849115,756.23524 L -13.884912,756.23524 L -13.884912,766.23524 L -3.8849115,766.23524 M 256.11498,746.23524 L 256.11498,736.23524 L 266.11501,736.23524 L 266.11501,716.23524 L 246.11508,716.23524 L 246.11508,706.23524 L 256.11498,706.23524 L 256.11498,686.23524 L 266.11501,686.23524 L 266.11501,676.23524 L 276.11501,676.23524 L 276.11501,686.23524 L 286.11501,686.23524 L 286.11501,656.23524 L 296.11501,656.23524 L 296.11501,666.23524 L 306.11501,666.23524 L 306.11501,656.23524 L 316.11501,656.23524 L 316.11501,666.23524 L 306.11501,666.23524 L 306.11501,676.23524 L 296.11501,676.23524 L 296.11501,686.23524 L 286.11501,686.23524 L 286.11501,696.23524 L 276.11501,696.23524 L 276.11501,706.23524 L 266.11501,706.23524 L 266.11501,716.23524 L 286.11501,716.23524 L 286.11501,706.23524 L 296.11501,706.23524 L 296.11501,696.23524 L 306.11501,696.23524 L 306.11501,716.23524 L 286.11501,716.23524 L 286.11501,736.23524 L 266.11501,736.23524 L 266.11501,746.23524 L 256.11498,746.23524 M 166.11508,736.23524 L 166.11508,726.23524 L 176.11508,726.23524 L 176.11508,736.23524 L 166.11508,736.23524 M 106.11508,736.23524 L 106.11508,726.23524 L 96.115084,726.23524 L 96.115084,716.23524 L 76.115088,716.23524 L 76.115088,706.23524 L 66.115088,706.23524 L 66.115088,716.23524 L 56.115088,716.23524 L 56.115088,706.23524 L 46.115088,706.23524 L 46.115088,716.23524 L 36.115088,716.23524 L 36.115088,706.23524 L 46.115088,706.23524 L 46.115088,696.23524 L 56.115088,696.23524 L 56.115088,686.23524 L 46.115088,686.23524 L 46.115088,676.23524 L 66.115088,676.23524 L 66.115088,666.23524 L 56.115088,666.23524 L 56.115088,646.23523 L 66.115088,646.23523 L 66.115088,636.23523 L 76.115088,636.23523 L 76.115088,646.23523 L 86.115084,646.23523 L 86.115084,656.23524 L 76.115088,656.23524 L 76.115088,646.23523 L 66.115088,646.23523 L 66.115088,666.23524 L 76.115088,666.23524 L 76.115088,676.23524 L 86.115084,676.23524 L 86.115084,696.23524 L 76.115088,696.23524 L 76.115088,706.23524 L 106.11508,706.23524 L 106.11508,696.23524 L 116.11508,696.23524 L 116.11508,716.23524 L 126.11508,716.23524 L 126.11508,726.23524 L 116.11508,726.23524 L 116.11508,736.23524 L 106.11508,736.23524 M -3.8849115,736.23524 L -3.8849115,726.23524 L -13.884912,726.23524 L -13.884912,736.23524 L -43.884912,736.23524 L -43.884912,716.23524 L -13.884912,716.23524 L -13.884912,706.23524 L -33.884912,706.23524 L -33.884912,686.23524 L -23.884912,686.23524 L -23.884912,696.23524 L -13.884912,696.23524 L -13.884912,686.23524 L 6.1150885,686.23524 L 6.1150885,696.23524 L 26.115088,696.23524 L 26.115088,676.23524 L -33.884912,676.23524 L -33.884912,666.23524 L -23.884912,666.23524 L -23.884912,656.23524 L -33.884912,656.23524 L -33.884912,646.23523 L -43.884912,646.23523 L -43.884912,626.23523 L -33.884912,626.23523 L -33.884912,636.23523 L -13.884912,636.23523 L -13.884912,616.23523 L -23.884912,616.23523 L -23.884912,606.23523 L -33.884912,606.23523 L -33.884912,596.23523 L -23.884912,596.23523 L -23.884912,606.23523 L -3.8849115,606.23523 L -3.8849115,616.23523 L 6.1150885,616.23523 L 6.1150885,626.23523 L -3.8849115,626.23523 L -3.8849115,636.23523 L 6.1150885,636.23523 L 6.1150885,646.23523 L -3.8849115,646.23523 L -3.8849115,636.23523 L -13.884912,636.23523 L -13.884912,666.23524 L 6.1150885,666.23524 L 6.1150885,656.23524 L 16.115088,656.23524 L 16.115088,646.23523 L 26.115088,646.23523 L 26.115088,636.23523 L 16.115088,636.23523 L 16.115088,596.23523 L 26.115088,596.23523 L 26.115088,586.23523 L 36.115088,586.23523 L 36.115088,596.23523 L 26.115088,596.23523 L 26.115088,606.23523 L 36.115088,606.23523 L 36.115088,616.23523 L 26.115088,616.23523 L 26.115088,636.23523 L 36.115088,636.23523 L 36.115088,646.23523 L 46.115088,646.23523 L 46.115088,666.23524 L 36.115088,666.23524 L 36.115088,696.23524 L 26.115088,696.23524 L 26.115088,706.23524 L -3.8849115,706.23524 L -3.8849115,716.23524 L 16.115088,716.23524 L 16.115088,726.23524 L 26.115088,726.23524 L 26.115088,736.23524 L -3.8849115,736.23524 M 386.11501,716.23524 L 386.11501,706.23524 L 396.11501,706.23524 L 396.11501,716.23524 L 386.11501,716.23524 M 226.11508,716.23524 L 226.11508,706.23524 L 216.11508,706.23524 L 216.11508,696.23524 L 206.11508,696.23524 L 206.11508,706.23524 L 216.11508,706.23524 L 216.11508,716.23524 L 226.11508,716.23524 M 166.11508,706.23524 L 166.11508,696.23524 L 176.11508,696.23524 L 176.11508,706.23524 L 166.11508,706.23524 M 66.115088,706.23524 L 66.115088,696.23524 L 56.115088,696.23524 L 56.115088,706.23524 L 66.115088,706.23524 M -3.8849115,706.23524 L -3.8849115,696.23524 L -13.884912,696.23524 L -13.884912,706.23524 L -3.8849115,706.23524 M 426.11501,696.23524 L 426.11501,686.23524 L 416.11501,686.23524 L 416.11501,696.23524 L 426.11501,696.23524 M 396.11501,686.23524 L 396.11501,676.23524 L 386.11501,676.23524 L 386.11501,666.23524 L 376.11501,666.23524 L 376.11501,676.23524 L 366.11501,676.23524 L 366.11501,666.23524 L 356.11501,666.23524 L 356.11501,656.23524 L 346.11501,656.23524 L 346.11501,666.23524 L 356.11501,666.23524 L 356.11501,676.23524 L 366.11501,676.23524 L 366.11501,686.23524 L 396.11501,686.23524 M 236.11508,686.23524 L 236.11508,656.23524 L 216.11508,656.23524 L 216.11508,646.23523 L 206.11508,646.23523 L 206.11508,636.23523 L 196.11508,636.23523 L 196.11508,646.23523 L 186.11508,646.23523 L 186.11508,656.23524 L 176.11508,656.23524 L 176.11508,666.23524 L 186.11508,666.23524 L 186.11508,676.23524 L 206.11508,676.23524 L 206.11508,686.23524 L 216.11508,686.23524 L 216.11508,676.23524 L 226.11508,676.23524 L 226.11508,686.23524 L 236.11508,686.23524 M 206.11508,676.23524 L 206.11508,666.23524 L 196.11508,666.23524 L 196.11508,656.23524 L 206.11508,656.23524 L 206.11508,666.23524 L 216.11508,666.23524 L 216.11508,676.23524 L 206.11508,676.23524 M 406.11501,666.23524 L 406.11501,656.23524 L 416.11501,656.23524 L 416.11501,666.23524 L 406.11501,666.23524 M 356.11501,646.23523 L 356.11501,636.23523 L 346.11501,636.23523 L 346.11501,646.23523 L 356.11501,646.23523 M 46.115088,636.23523 L 46.115088,616.23523 L 56.115088,616.23523 L 56.115088,636.23523 L 46.115088,636.23523 M 226.11508,626.23523 L 226.11508,616.23523 L 246.11508,616.23523 L 246.11508,626.23523 L 226.11508,626.23523 M 66.115088,626.23523 L 66.115088,606.23523 L 56.115088,606.23523 L 56.115088,596.23523 L 46.115088,596.23523 L 46.115088,566.23523 L 56.115088,566.23523 L 56.115088,556.23523 L 96.115084,556.23523 L 96.115084,566.23523 L 106.11508,566.23523 L 106.11508,546.23523 L 116.11508,546.23523 L 116.11508,556.23523 L 126.11508,556.23523 L 126.11508,566.23523 L 146.11508,566.23523 L 146.11508,576.23523 L 126.11508,576.23523 L 126.11508,566.23523 L 116.11508,566.23523 L 116.11508,586.23523 L 96.115084,586.23523 L 96.115084,596.23523 L 86.115084,596.23523 L 86.115084,616.23523 L 76.115088,616.23523 L 76.115088,626.23523 L 66.115088,626.23523 M 426.11501,606.23523 L 426.11501,596.23523 L 436.11501,596.23523 L 436.11501,606.23523 L 426.11501,606.23523 M 76.115088,606.23523 L 76.115088,596.23523 L 66.115088,596.23523 L 66.115088,586.23523 L 76.115088,586.23523 L 76.115088,576.23523 L 86.115084,576.23523 L 86.115084,566.23523 L 76.115088,566.23523 L 76.115088,576.23523 L 56.115088,576.23523 L 56.115088,596.23523 L 66.115088,596.23523 L 66.115088,606.23523 L 76.115088,606.23523 M 266.11501,596.23523 L 266.11501,576.23523 L 276.11501,576.23523 L 276.11501,566.23523 L 266.11501,566.23523 L 266.11501,556.23523 L 276.11501,556.23523 L 276.11501,546.23523 L 286.11501,546.23523 L 286.11501,536.23523 L 276.11501,536.23523 L 276.11501,526.2352 L 266.11501,526.2352 L 266.11501,556.23523 L 236.11508,556.23523 L 236.11508,566.23523 L 246.11508,566.23523 L 246.11508,576.23523 L 256.11498,576.23523 L 256.11498,596.23523 L 266.11501,596.23523 M -3.8849115,596.23523 L -3.8849115,586.23523 L 6.1150885,586.23523 L 6.1150885,596.23523 L -3.8849115,596.23523 M -63.884962,596.23523 L -63.884962,576.23523 L -53.884962,576.23523 L -53.884962,566.23523 L -63.884962,566.23523 L -63.884962,556.23523 L -73.884962,556.23523 L -73.884962,566.23523 L -63.884962,566.23523 L -63.884962,576.23523 L -73.884962,576.23523 L -73.884962,596.23523 L -63.884962,596.23523 M 256.11498,576.23523 L 256.11498,566.23523 L 266.11501,566.23523 L 266.11501,576.23523 L 256.11498,576.23523 M 176.11508,576.23523 L 176.11508,546.23523 L 206.11508,546.23523 L 206.11508,576.23523 L 176.11508,576.23523 M 156.11508,576.23523 L 156.11508,566.23523 L 166.11508,566.23523 L 166.11508,576.23523 L 156.11508,576.23523 M -23.884912,576.23523 L -23.884912,546.23523 L 6.1150885,546.23523 L 6.1150885,576.23523 L -23.884912,576.23523 M 456.11501,566.23523 L 456.11501,496.23518 L 386.11501,496.23518 L 386.11501,566.23523 L 456.11501,566.23523 M 196.11508,566.23523 L 196.11508,556.23523 L 186.11508,556.23523 L 186.11508,566.23523 L 196.11508,566.23523 M -3.8849115,566.23523 L -3.8849115,556.23523 L -13.884912,556.23523 L -13.884912,566.23523 L -3.8849115,566.23523 M 396.11501,556.23523 L 396.11501,506.23518 L 446.11501,506.23518 L 446.11501,556.23523 L 396.11501,556.23523 M 336.11501,556.23523 L 336.11501,536.23523 L 356.11501,536.23523 L 356.11501,546.23523 L 346.11501,546.23523 L 346.11501,556.23523 L 336.11501,556.23523 M 136.11508,556.23523 L 136.11508,546.23523 L 126.11508,546.23523 L 126.11508,536.23523 L 136.11508,536.23523 L 136.11508,546.23523 L 146.11508,546.23523 L 146.11508,536.23523 L 156.11508,536.23523 L 156.11508,526.2352 L 166.11508,526.2352 L 166.11508,516.23518 L 186.11508,516.23518 L 186.11508,526.2352 L 196.11508,526.2352 L 196.11508,536.23523 L 156.11508,536.23523 L 156.11508,546.23523 L 146.11508,546.23523 L 146.11508,556.23523 L 136.11508,556.23523 M 436.11501,546.23523 L 436.11501,516.23518 L 406.11501,516.23518 L 406.11501,546.23523 L 436.11501,546.23523 M 256.11498,546.23523 L 256.11498,536.23523 L 236.11508,536.23523 L 236.11508,546.23523 L 256.11498,546.23523 M 66.115088,536.23523 L 66.115088,526.2352 L 86.115084,526.2352 L 86.115084,516.23518 L 96.115084,516.23518 L 96.115084,506.23518 L 106.11508,506.23518 L 106.11508,516.23518 L 96.115084,516.23518 L 96.115084,526.2352 L 86.115084,526.2352 L 86.115084,536.23523 L 66.115088,536.23523 M 46.115088,526.2352 L 46.115088,516.23518 L 36.115088,516.23518 L 36.115088,506.23518 L -3.8849115,506.23518 L -3.8849115,526.2352 L 6.1150885,526.2352 L 6.1150885,516.23518 L 16.115088,516.23518 L 16.115088,526.2352 L 46.115088,526.2352 M -63.884962,526.2352 L -63.884962,516.23518 L -33.884912,516.23518 L -33.884912,496.23518 L -53.884962,496.23518 L -53.884962,506.23518 L -73.884962,506.23518 L -73.884962,526.2352 L -63.884962,526.2352 M -13.884912,516.23518 L -13.884912,496.23518 L -23.884912,496.23518 L -23.884912,516.23518 L -13.884912,516.23518 M 366.11501,506.23518 L 366.11501,496.23518 L 356.11501,496.23518 L 356.11501,506.23518 L 366.11501,506.23518 M 76.115088,506.23518 L 76.115088,496.23518 L 46.115088,496.23518 L 46.115088,506.23518 L 76.115088,506.23518 z"
         id="path3051" />
      <text
         sodipodi:linespacing="125%"
         id="text3070"
         y="330.608"
         x="488.71008"
         style="font-size:92px;font-style:normal;font-variant:normal;font-weight:bold;font-stretch:normal;text-align:start;line-height:125%;letter-spacing:0px;word-spacing:0px;writing-mode:lr-tb;text-anchor:start;fill:#392716;fill-opacity:1;stroke:none;font-family:Yanone Kaffeesatz;-inkscape-font-specification:Yanone Kaffeesatz Bold"
         xml:space="preserve"><tspan
           id="tspan3076"
           y="330.608"
           x="488.71008"
           sodipodi:role="line">Jeremy Hughes</tspan></text>
    </g>
  </g>
</svg>
